if (_typeface_js && _typeface_js.loadFace) _typeface_js.loadFace({"glyphs":{"S":{"x_min":18.640625,"x_max":733.421875,"ha":846,"o":"m 245 1237 q 316 1220 279 1236 q 315 1196 315 1212 q 321 1125 315 1165 q 316 1059 314 1094 l 310 1047 l 316 1030 q 304 982 308 1009 q 268 935 283 960 q 262 863 262 908 q 458 733 338 779 q 541 674 489 698 l 565 650 q 636 584 599 628 l 647 579 l 701 472 l 713 448 q 731 394 714 421 q 733 350 733 372 q 571 33 733 165 q 434 -8 513 -4 q 426 80 426 29 q 428 139 426 97 l 422 228 q 511 371 504 268 q 434 478 489 426 l 392 489 q 333 537 371 512 l 316 543 l 310 555 l 292 560 l 286 573 q 39 957 39 678 q 43 1024 39 985 q 79 1077 62 1045 q 114 1142 96 1102 q 144 1172 130 1152 q 226 1231 189 1188 l 228 1231 q 245 1237 237 1231 m 392 1231 q 690 994 608 1214 q 698 946 698 971 q 690 893 698 921 q 588 881 650 892 l 571 881 l 569 881 q 553 875 561 881 l 529 875 l 505 869 l 487 869 l 470 881 q 464 946 463 910 q 416 994 449 975 l 392 1030 l 392 1166 q 393 1178 393 1170 q 386 1213 393 1198 l 392 1231 m 221 389 q 333 193 236 252 q 342 98 342 151 q 333 -20 342 44 l 292 -8 l 274 -8 q 19 299 79 69 l 18 309 q 167 389 18 389 l 173 389 l 221 389 "},"/":{"x_min":-10.84375,"x_max":693.765625,"ha":679,"o":"m -10 1222 l -10 170 l 331 1222 l -10 1222 m 670 1222 l 273 -1 l 616 -1 l 693 235 l 693 1222 l 670 1222 "},"K":{"x_min":20.671875,"x_max":656.125,"ha":785,"o":"m 178 1217 l 194 1217 l 218 1217 l 235 1217 q 234 1207 234 1213 q 252 1176 234 1192 q 239 1093 239 1140 q 241 1055 239 1075 q 235 1009 235 1039 l 235 992 l 235 975 l 235 957 l 229 940 q 238 878 238 908 q 235 842 238 866 q 237 811 237 833 q 235 773 237 787 l 241 756 q 235 709 235 732 q 241 657 235 686 l 241 634 q 239 601 239 615 q 241 560 239 590 l 241 444 l 241 427 l 241 404 l 241 346 l 247 329 q 240 271 240 305 q 241 248 240 256 l 235 225 l 241 173 l 241 115 l 241 99 l 241 81 l 241 58 l 241 41 l 235 0 q 171 -10 207 0 l 154 -10 q 108 -5 131 -5 q 56 -10 85 -5 q 28 64 25 16 l 28 156 l 28 410 l 22 433 l 28 450 l 22 484 q 26 516 26 499 q 22 548 26 533 l 28 663 l 28 680 l 28 682 q 22 692 28 688 l 28 703 l 28 744 q 20 834 20 786 q 22 876 20 847 l 22 1205 l 62 1217 l 178 1217 m 443 1217 q 489 1214 461 1214 q 546 1217 519 1214 l 586 1217 l 610 1217 l 627 1217 l 650 1211 l 616 1044 l 610 1026 l 604 1003 l 604 986 l 593 975 l 586 957 q 569 894 582 930 l 563 871 q 535 744 540 819 l 523 733 q 546 600 521 667 l 546 583 l 546 560 l 552 542 l 558 525 q 563 507 558 517 l 563 491 q 581 398 567 448 l 586 369 q 598 306 586 342 q 616 237 598 278 l 616 219 q 621 191 616 207 l 639 99 l 644 69 l 656 41 l 644 0 q 616 -2 634 -2 q 581 0 597 -2 l 540 -10 l 500 0 l 483 -10 l 448 -10 q 425 81 447 29 q 426 107 426 89 q 425 139 426 128 l 414 156 l 414 185 q 402 208 414 198 l 408 225 q 385 306 408 265 l 385 346 l 374 375 l 374 415 l 356 438 l 362 461 q 344 519 348 484 l 333 531 l 333 680 q 339 738 332 707 l 339 761 l 333 779 l 333 819 l 333 842 q 385 1026 383 918 q 414 1130 411 1067 l 425 1176 l 431 1194 l 443 1217 "},"7":{"x_min":32.875,"x_max":652.046875,"ha":779,"o":"m 44 1237 q 128 1224 87 1224 q 219 1237 169 1224 q 268 1232 244 1232 q 324 1237 293 1232 l 342 1237 l 359 1237 l 377 1237 q 419 1234 395 1234 q 464 1237 443 1234 l 476 1231 l 552 1231 l 581 1237 l 610 1237 l 639 1237 q 652 1077 652 1170 q 651 1038 652 1052 l 651 1022 q 610 946 629 990 q 557 939 588 947 l 523 939 q 502 943 515 943 q 476 939 487 943 q 447 933 463 940 l 411 946 q 408 973 408 960 q 418 1027 408 997 l 382 1033 q 340 1030 357 1030 q 289 1033 326 1030 l 243 1027 l 225 1033 l 207 1033 q 138 1027 181 1028 l 108 1033 q 68 1027 88 1033 l 44 1033 q 37 1120 37 1069 q 38 1167 37 1150 l 32 1190 l 38 1202 l 38 1226 l 44 1237 m 470 870 q 540 863 496 870 l 552 834 q 528 764 534 807 q 494 659 501 724 q 476 583 479 627 l 464 566 l 458 543 l 458 525 q 418 368 434 461 q 406 309 409 345 l 400 263 l 394 239 l 394 221 l 377 116 l 377 46 l 377 29 l 348 0 q 298 -2 328 -2 q 237 0 266 -2 l 219 0 l 207 6 l 178 0 l 161 6 q 167 64 159 30 q 172 134 172 93 q 190 227 189 174 l 202 274 q 225 385 203 326 q 243 467 228 422 l 243 490 q 266 554 253 524 l 272 577 l 289 659 l 295 682 l 301 712 q 336 840 329 764 q 359 863 348 845 q 399 859 379 859 q 470 870 432 859 "},"d":{"x_min":12.53125,"x_max":643.234375,"ha":762,"o":"m 41 1226 q 104 1233 70 1233 q 245 1196 173 1233 q 232 1063 232 1137 q 234 1015 232 1048 l 239 975 q 236 954 236 965 q 239 928 236 944 q 232 855 232 893 q 239 771 232 819 l 234 747 l 234 718 l 234 695 q 230 651 230 672 q 239 572 230 612 q 236 551 236 562 q 239 525 236 541 l 228 502 l 234 473 l 239 438 l 239 408 q 234 340 234 380 q 239 257 234 299 l 239 239 l 239 175 l 239 151 q 237 109 237 126 q 239 59 237 95 l 239 41 l 234 23 q 100 0 172 0 q 24 6 68 0 l 12 29 q 17 101 17 60 q 12 187 17 144 l 12 204 q 20 261 20 232 q 18 286 20 268 l 18 309 q 17 337 17 318 q 24 408 17 370 q 22 444 22 430 q 24 484 22 456 l 24 566 l 24 601 q 22 659 22 635 q 24 729 22 678 l 24 1156 q 12 1196 20 1177 l 30 1237 l 41 1226 m 350 1237 q 643 743 643 1178 q 636 601 643 673 q 640 484 640 540 q 339 -5 640 16 q 330 75 330 31 q 333 128 330 90 l 327 151 l 321 169 l 339 216 q 420 268 391 219 l 409 303 q 422 412 422 349 q 420 455 422 440 l 420 478 l 415 502 l 420 525 q 409 590 422 558 l 420 613 l 415 653 q 421 720 421 683 q 420 747 421 737 l 420 946 l 415 986 q 339 1015 387 1015 q 340 1027 340 1019 q 333 1068 340 1047 q 336 1114 336 1093 q 327 1202 336 1157 l 350 1237 "},",":{"x_min":0,"x_max":0,"ha":161},"Y":{"x_min":16.609375,"x_max":691.375,"ha":818,"o":"m 33 1230 q 81 1228 53 1228 q 137 1230 110 1228 l 148 1224 l 194 1224 l 196 1224 q 206 1230 202 1224 q 229 1224 215 1225 q 258 1115 234 1177 l 258 1098 l 275 1052 l 281 1034 l 281 1032 q 287 1017 281 1026 q 304 954 290 988 l 310 919 l 321 901 q 344 821 324 871 q 362 763 348 793 l 362 746 l 362 744 q 367 735 362 738 l 379 689 q 402 631 382 661 q 414 591 403 611 q 431 533 414 567 l 443 493 l 448 458 q 466 429 454 443 q 458 332 458 387 q 460 285 458 319 q 454 239 460 268 l 460 216 l 454 118 l 460 94 q 462 70 462 84 q 443 8 462 38 l 448 -2 l 270 -2 l 235 20 q 234 40 234 26 q 247 153 234 87 l 241 164 q 247 256 247 203 l 247 285 l 246 327 l 247 377 l 247 440 q 212 562 224 489 l 206 573 l 194 585 l 183 631 l 178 654 q 154 717 176 684 l 154 735 l 143 763 l 137 792 l 131 815 q 125 838 125 823 q 91 937 116 883 l 91 965 l 79 988 q 51 1081 72 1026 l 22 1173 l 22 1190 l 16 1201 l 33 1230 m 506 1224 q 566 1219 535 1219 q 639 1224 597 1219 l 656 1224 l 673 1224 l 690 1219 q 691 1201 691 1213 q 685 1150 691 1178 q 650 1046 662 1111 q 639 1034 644 1044 l 633 1017 l 627 994 l 604 931 l 598 908 l 593 891 l 558 798 l 563 775 q 546 758 554 771 l 517 683 l 512 648 q 471 619 497 631 q 454 706 455 659 l 448 717 l 448 719 q 443 735 448 726 l 431 781 l 414 821 l 414 838 l 402 850 l 397 868 l 390 891 l 385 931 q 437 1075 420 985 l 460 1115 l 466 1138 l 477 1161 l 489 1207 l 506 1224 "},"E":{"x_min":12.140625,"x_max":642.90625,"ha":775,"o":"m 204 1238 l 222 1238 q 240 1239 227 1239 q 292 1232 263 1239 l 304 1238 l 345 1232 l 362 1232 q 400 1235 378 1235 q 444 1232 423 1235 l 467 1232 l 497 1238 q 563 1232 525 1232 q 596 1232 584 1232 l 631 1232 q 642 1203 632 1218 q 634 1167 634 1186 q 642 1127 634 1150 l 636 1087 l 642 1063 l 625 1034 q 558 1028 594 1028 q 473 1034 523 1028 q 442 1032 457 1032 q 403 1034 433 1032 q 321 1028 368 1027 q 263 1040 296 1038 l 240 1040 q 233 956 233 1006 q 233 922 233 934 l 233 888 q 228 818 233 865 l 228 794 l 216 777 l 216 754 l 245 742 q 348 755 290 755 q 385 754 360 755 l 461 754 l 479 736 l 479 573 l 473 561 l 450 537 q 428 539 440 539 q 379 532 407 539 l 362 537 q 335 536 346 536 q 304 537 327 536 l 251 537 l 233 549 l 233 339 l 228 298 l 228 280 l 216 234 l 333 240 l 350 240 l 368 234 l 549 234 l 578 240 q 631 217 605 236 l 625 199 l 625 65 l 619 47 l 619 18 l 613 0 q 602 -10 607 0 q 534 -4 574 -4 q 508 -4 517 -4 l 432 -4 l 415 0 l 164 0 l 99 12 l 76 12 l 52 0 l 18 6 q 12 100 11 46 l 12 893 q 18 998 12 931 l 18 1081 q 19 1114 19 1091 q 12 1209 19 1159 q 47 1244 27 1219 l 187 1244 l 204 1238 "},"y":{"x_min":16.609375,"x_max":691.375,"ha":818,"o":"m 33 1230 q 81 1228 53 1228 q 137 1230 110 1228 l 148 1224 l 194 1224 l 196 1224 q 206 1230 202 1224 q 229 1224 215 1225 q 258 1115 234 1177 l 258 1098 l 275 1052 l 281 1034 l 281 1032 q 287 1017 281 1026 q 304 954 290 988 l 310 919 l 321 901 q 344 821 324 871 q 362 763 348 793 l 362 746 l 362 744 q 367 735 362 738 l 379 689 q 402 631 382 661 q 414 591 403 611 q 431 533 414 567 l 443 493 l 448 458 q 466 429 454 443 q 458 332 458 387 q 460 285 458 319 q 454 239 460 268 l 460 216 l 454 118 l 460 94 q 462 70 462 84 q 443 8 462 38 l 448 -2 l 270 -2 l 235 20 q 234 40 234 26 q 247 153 234 87 l 241 164 q 247 256 247 203 l 247 285 l 246 327 l 247 377 l 247 440 q 212 562 224 489 l 206 573 l 194 585 l 183 631 l 178 654 q 154 717 176 684 l 154 735 l 143 763 l 137 792 l 131 815 q 125 838 125 823 q 91 937 116 883 l 91 965 l 79 988 q 51 1081 72 1026 l 22 1173 l 22 1190 l 16 1201 l 33 1230 m 506 1224 q 566 1219 535 1219 q 639 1224 597 1219 l 656 1224 l 673 1224 l 690 1219 q 691 1201 691 1213 q 685 1150 691 1178 q 650 1046 662 1111 q 639 1034 644 1044 l 633 1017 l 627 994 l 604 931 l 598 908 l 593 891 l 558 798 l 563 775 q 546 758 554 771 l 517 683 l 512 648 q 471 619 497 631 q 454 706 455 659 l 448 717 l 448 719 q 443 735 448 726 l 431 781 l 414 821 l 414 838 l 402 850 l 397 868 l 390 891 l 385 931 q 437 1075 420 985 l 460 1115 l 466 1138 l 477 1161 l 489 1207 l 506 1224 "},"\"":{"x_min":0,"x_max":0,"ha":161},"g":{"x_min":20,"x_max":681.203125,"ha":806,"o":"m 315 1191 l 315 1144 l 315 1143 q 321 1133 315 1138 l 321 1116 l 321 1098 q 263 1028 315 1051 q 240 976 256 1006 q 246 901 248 946 l 246 796 l 246 773 q 258 698 247 745 q 251 629 251 671 q 251 600 251 610 l 251 484 l 251 466 l 251 443 l 258 414 l 258 385 l 258 350 l 258 322 l 263 286 l 263 252 q 327 200 296 233 q 324 154 324 180 q 338 49 324 104 l 338 31 q 315 -8 323 12 q 27 387 27 47 q 37 524 27 451 q 32 586 32 555 q 37 657 32 617 q 26 669 36 663 l 37 680 q 32 723 32 699 q 37 773 32 749 q 31 820 30 792 q 28 836 28 826 q 31 855 28 846 l 31 884 q 20 918 29 899 q 31 958 31 937 q 26 988 31 971 l 37 1017 l 37 1046 q 234 1237 103 1162 l 310 1231 l 315 1191 m 437 1237 q 646 1000 614 1193 q 658 906 658 958 q 658 884 658 891 q 565 849 607 878 l 519 837 l 478 843 q 470 945 470 883 q 472 1000 470 981 q 414 1051 451 1027 q 411 1106 411 1078 q 414 1173 411 1133 l 414 1220 l 420 1231 l 422 1231 q 437 1237 429 1231 m 553 605 q 658 600 589 598 q 669 495 671 558 l 675 484 l 675 466 l 669 455 l 675 438 l 669 425 l 675 408 q 673 381 673 400 q 681 309 673 346 q 675 229 673 276 l 675 211 l 675 188 l 675 165 l 675 90 l 675 67 l 675 -8 q 646 -13 660 -13 q 570 43 600 -13 q 450 0 496 0 q 402 20 420 0 l 402 170 l 414 211 q 479 325 479 240 q 472 385 479 354 l 414 385 l 402 420 l 402 594 l 454 600 q 488 597 476 597 q 553 605 519 597 "},"ƒ":{"x_min":0,"x_max":0,"ha":391},"e":{"x_min":12.140625,"x_max":642.90625,"ha":775,"o":"m 140 1244 l 187 1244 l 204 1238 l 222 1238 q 240 1239 227 1239 q 292 1232 263 1239 l 304 1238 l 345 1232 l 362 1232 q 400 1235 378 1235 q 444 1232 423 1235 l 467 1232 l 497 1238 q 563 1232 525 1232 q 596 1232 584 1232 l 631 1232 q 642 1203 632 1218 q 634 1167 634 1186 q 642 1127 634 1150 l 636 1087 l 642 1063 l 625 1034 q 558 1028 594 1028 q 473 1034 523 1028 q 442 1032 457 1032 q 403 1034 433 1032 q 321 1028 368 1027 q 263 1040 296 1038 l 240 1040 q 233 956 233 1006 q 233 922 233 934 l 233 906 l 233 888 q 228 818 233 865 l 228 794 l 216 777 l 216 754 l 245 742 q 348 755 290 755 q 385 754 360 755 l 403 754 l 421 754 l 461 754 l 479 736 l 479 619 l 479 573 l 473 561 l 450 537 q 428 539 440 539 q 379 532 407 539 l 362 537 q 335 536 346 536 q 304 537 327 536 l 286 537 l 269 537 l 251 537 l 233 549 l 233 444 l 233 339 l 228 298 l 228 280 l 216 234 l 333 240 l 350 240 l 368 234 l 391 234 l 455 234 l 473 234 l 549 234 l 578 240 q 631 217 605 236 l 625 199 l 625 82 l 625 65 l 619 47 l 619 18 l 613 0 q 602 -10 607 0 q 534 -4 574 -4 q 508 -4 517 -4 l 491 -4 l 473 -4 l 432 -4 l 415 0 l 222 0 l 164 0 l 99 12 l 76 12 l 52 0 l 18 6 q 12 100 11 46 l 12 893 q 18 998 12 931 l 18 1081 q 19 1114 19 1091 q 12 1209 19 1159 q 47 1244 27 1219 l 123 1244 l 140 1244 "},"J":{"x_min":20.671875,"x_max":630.34375,"ha":765,"o":"m 463 1230 q 536 1220 496 1220 q 595 1225 563 1220 l 613 1219 q 621 1091 621 1165 q 618 995 621 1040 l 618 977 q 620 952 620 971 q 618 914 620 929 l 618 891 l 618 874 l 618 846 q 625 779 625 818 q 624 754 625 762 l 624 737 l 624 719 l 624 679 l 624 661 l 624 639 l 624 621 l 624 604 l 624 587 l 624 564 l 624 489 l 624 472 l 630 461 l 624 421 l 624 403 l 624 380 l 624 323 l 624 260 l 624 242 l 624 225 l 624 208 l 613 162 q 377 7 541 21 q 371 80 371 39 q 371 110 371 99 q 365 128 371 119 l 371 156 l 360 174 q 411 248 375 216 l 400 265 q 414 368 414 311 q 411 421 414 396 q 413 458 413 432 q 411 501 413 486 q 416 543 416 520 q 411 587 416 567 q 414 606 414 597 q 411 627 414 617 l 418 656 l 411 691 l 418 719 l 411 748 q 418 794 418 764 l 411 868 q 414 906 414 887 q 411 949 414 927 l 418 989 l 411 1024 l 411 1104 l 418 1150 q 411 1196 413 1166 q 463 1230 428 1217 m 234 426 l 234 363 l 239 346 l 234 323 l 239 305 l 234 282 l 234 265 l 239 242 l 245 219 l 285 196 l 285 128 q 290 86 290 104 q 274 7 290 47 l 279 -4 q 20 283 20 54 q 44 438 20 355 q 182 484 108 444 l 234 484 l 234 426 "},"|":{"x_min":0,"x_max":0,"ha":136},"^":{"x_min":0,"x_max":0,"ha":224},"q":{"x_min":0.671875,"x_max":711.609375,"ha":840,"o":"m 393 1237 q 465 1213 427 1232 l 483 1207 l 501 1207 l 513 1201 l 555 1177 l 561 1165 l 585 1165 q 657 1081 609 1127 q 675 1022 662 1056 q 693 919 688 980 q 699 847 699 893 l 705 830 l 699 788 q 705 739 705 769 l 705 691 q 711 572 712 642 q 705 524 706 554 l 711 505 q 699 494 704 502 q 711 482 706 492 q 699 408 699 447 q 705 350 699 383 q 699 248 698 311 l 687 218 l 687 200 l 687 182 q 639 110 674 152 l 633 92 q 681 2 646 51 l 681 -33 q 633 -87 653 -51 q 561 -159 591 -107 l 537 -159 q 483 -39 495 -113 q 417 -15 457 -21 q 399 20 412 3 q 406 114 406 58 q 405 152 406 139 l 405 194 q 453 338 456 244 q 447 514 447 383 l 447 554 l 441 572 l 447 590 l 447 608 l 441 632 l 441 661 l 447 686 l 441 716 l 441 758 l 447 788 q 449 826 449 805 q 441 919 449 866 l 441 950 l 387 997 l 387 1171 q 393 1237 385 1197 m 309 1219 q 298 1137 298 1180 q 309 1045 298 1095 l 303 1028 q 255 950 291 988 l 255 878 l 255 859 l 255 758 l 255 733 l 255 710 l 255 686 l 255 661 l 255 644 l 255 619 l 249 590 q 252 550 252 571 q 249 500 252 531 l 249 422 l 249 398 l 255 374 l 249 350 q 256 269 256 317 q 255 236 256 248 q 309 182 273 206 q 315 164 309 173 q 307 111 307 139 q 321 38 307 76 l 309 -21 l 231 -15 q 0 428 0 127 q 9 554 0 490 l 9 883 l 15 908 l 45 1028 l 51 1051 q 255 1225 123 1159 l 309 1219 "},"b":{"x_min":12.53125,"x_max":646.625,"ha":774,"o":"m 383 1258 q 646 916 646 1203 q 618 704 646 823 q 589 669 592 698 q 506 622 550 659 l 589 568 l 601 563 q 645 372 645 472 q 630 251 645 315 q 348 -13 602 14 q 342 80 340 26 l 342 145 l 336 162 l 330 180 q 434 320 434 220 q 430 363 434 341 q 436 410 436 387 q 342 539 436 497 q 345 597 345 568 q 342 669 345 625 l 342 710 q 439 836 439 736 q 436 875 439 853 q 443 924 443 904 q 353 1057 443 1009 q 355 1073 355 1062 q 348 1110 355 1091 q 353 1165 353 1139 q 342 1246 353 1204 q 349 1245 344 1245 q 383 1258 366 1245 m 106 1246 q 171 1228 136 1243 l 218 1228 q 230 1211 221 1217 q 227 1149 227 1186 q 230 1075 227 1110 l 224 1051 l 224 1034 l 218 1016 l 224 992 l 224 957 l 224 934 l 230 910 l 230 798 l 224 781 q 230 745 224 765 q 227 714 227 734 q 230 675 227 694 l 224 663 l 224 627 q 230 551 222 594 l 224 498 l 218 463 q 224 416 224 444 l 230 381 q 221 283 221 335 q 224 221 221 265 l 230 210 l 224 186 l 224 139 l 230 104 l 236 56 l 224 15 q 119 -8 172 -8 q 24 10 72 -8 l 12 27 l 12 427 l 18 545 l 12 604 q 18 675 18 632 l 18 781 l 17 829 l 18 887 l 18 888 q 12 898 18 894 l 18 910 l 18 1069 q 19 1096 19 1077 q 12 1199 19 1142 l 12 1216 q 106 1246 50 1240 "},"D":{"x_min":12.53125,"x_max":643.234375,"ha":762,"o":"m 41 1226 q 104 1233 70 1233 q 245 1196 173 1233 q 232 1063 232 1137 q 234 1015 232 1048 l 239 975 q 236 954 236 965 q 239 928 236 944 q 232 855 232 893 q 239 771 232 819 l 234 747 l 234 695 q 230 651 230 672 q 239 572 230 612 q 236 551 236 562 q 239 525 236 541 l 228 502 l 234 473 l 239 438 l 239 408 q 234 340 234 380 q 239 257 234 299 l 239 151 q 237 109 237 126 q 239 59 237 95 l 239 41 l 234 23 q 100 0 172 0 q 24 6 68 0 l 12 29 q 17 101 17 60 q 12 187 17 144 l 12 204 q 20 261 20 232 q 18 286 20 268 l 18 309 q 17 337 17 318 q 24 408 17 370 q 22 444 22 430 q 24 484 22 456 l 24 601 q 22 659 22 635 q 24 729 22 678 l 24 1156 q 12 1196 20 1177 l 30 1237 l 41 1226 m 350 1237 q 643 743 643 1178 q 636 601 643 673 q 640 484 640 540 q 339 -5 640 16 q 330 75 330 31 q 333 128 330 90 l 327 151 l 321 169 l 339 216 q 420 268 391 219 l 409 303 q 422 412 422 349 q 420 455 422 440 l 420 478 l 415 502 l 420 525 q 409 590 422 558 l 420 613 l 415 653 q 421 720 421 683 q 420 747 421 737 l 420 946 l 415 986 q 339 1015 387 1015 q 340 1027 340 1019 q 333 1068 340 1047 q 336 1114 336 1093 q 327 1202 336 1157 l 350 1237 "},"z":{"x_min":16.609375,"x_max":637.8125,"ha":767,"o":"m 115 1230 l 133 1230 l 231 1230 l 255 1230 l 435 1224 l 469 1230 l 504 1230 l 603 1230 l 637 1219 l 637 1085 l 637 1062 l 631 1051 l 631 1028 q 574 917 597 987 q 544 848 560 894 l 521 802 l 515 784 q 481 697 497 753 l 469 691 l 469 674 l 458 662 l 458 639 l 440 622 q 388 488 426 562 l 353 402 l 347 390 l 342 367 l 324 338 l 312 303 l 295 274 l 295 245 q 360 238 324 238 q 435 245 397 238 q 498 233 464 233 l 515 240 l 539 240 l 556 240 l 579 240 l 603 240 l 620 245 l 631 227 q 630 200 630 219 q 637 129 630 164 l 631 94 q 637 77 631 86 l 631 60 l 637 42 l 637 13 l 614 2 q 553 -4 587 -4 q 481 2 517 -4 l 417 2 q 380 0 394 0 q 336 2 367 0 l 324 -3 q 278 -9 301 -2 q 266 2 277 -3 l 231 -3 q 165 2 203 2 q 139 2 148 2 l 121 2 l 104 2 l 63 2 l 46 2 l 17 8 l 16 29 l 17 54 l 17 94 l 23 106 l 17 129 l 17 187 l 28 222 q 87 343 70 268 q 127 436 113 382 l 139 454 l 144 471 q 167 535 157 496 q 208 598 182 564 l 208 622 q 231 680 224 646 l 243 686 l 249 703 l 260 738 q 289 825 283 774 q 359 987 323 882 q 292 994 331 994 q 266 993 275 994 l 220 993 l 203 993 l 185 993 l 104 998 l 28 1005 l 28 1196 l 46 1230 l 115 1230 "},"w":{"x_min":18.640625,"x_max":931.453125,"ha":1049,"o":"m 488 1237 q 546 1220 515 1236 l 563 1144 l 563 1127 l 581 1069 q 593 1011 592 1044 q 610 947 605 984 l 616 924 q 633 889 620 907 l 633 872 l 633 870 q 639 860 633 863 q 656 779 639 828 q 668 750 657 765 q 685 680 669 723 l 697 634 q 714 599 701 616 l 725 552 q 738 524 728 538 l 743 483 l 778 384 q 761 257 778 333 l 755 216 l 755 198 l 749 181 l 749 164 l 743 141 l 743 123 l 738 106 l 732 82 l 725 59 l 725 25 l 714 2 l 645 2 l 610 134 l 598 187 l 593 198 l 569 291 q 546 390 567 332 l 540 419 l 529 442 q 523 472 529 455 l 517 506 l 505 535 l 500 570 l 488 611 q 477 645 487 627 q 447 767 477 702 q 424 866 447 810 q 413 906 422 883 l 401 953 q 436 1069 407 1007 l 436 1098 l 447 1115 l 459 1162 l 465 1185 l 477 1203 l 477 1226 q 488 1237 482 1227 m 911 1237 l 929 1237 q 931 1199 931 1219 q 906 1034 931 1129 l 906 1017 l 894 970 q 877 860 894 927 q 859 767 879 817 l 865 756 q 848 692 860 722 l 848 663 l 848 640 l 813 628 l 790 663 q 791 682 791 670 q 755 802 791 742 q 743 854 754 824 l 738 872 l 732 901 l 720 924 l 720 947 l 702 965 q 691 982 699 976 q 709 1074 690 1032 q 720 1150 709 1106 q 723 1182 723 1165 q 720 1214 723 1201 l 732 1237 l 911 1237 m 204 1226 l 221 1226 l 239 1226 q 279 1051 272 1154 l 291 1034 l 291 1017 q 297 999 291 1009 l 297 982 l 308 958 q 320 883 308 928 l 320 866 l 325 842 q 343 785 328 817 l 349 744 l 349 727 q 355 709 349 718 l 361 692 l 361 669 l 389 576 q 401 512 391 545 q 418 448 405 483 l 418 402 q 401 297 405 362 l 395 286 q 389 239 389 269 l 384 216 l 378 193 l 366 118 l 361 88 l 355 59 l 349 30 l 349 2 q 334 2 344 2 q 285 -4 310 2 q 256 54 268 16 q 257 64 257 57 q 245 106 257 85 q 232 164 245 134 l 232 181 q 209 280 228 223 l 204 303 q 192 367 203 332 l 192 396 l 180 419 q 163 500 180 455 l 163 529 l 152 552 q 146 581 152 566 q 129 663 142 636 l 123 721 l 111 761 l 111 779 l 100 831 l 93 854 l 82 889 l 76 930 l 53 1040 l 53 1057 l 18 1191 l 24 1226 l 204 1226 "},"$":{"x_min":0,"x_max":0,"ha":431},"™":{"x_min":0,"x_max":0,"ha":462},"\\":{"x_min":-10.84375,"x_max":693.765625,"ha":679,"o":"m 693 1222 l 351 1222 l 693 170 l 693 1222 m 67 -1 l 409 -1 l 12 1222 l -10 1222 l -10 235 l 67 -1 "},"~":{"x_min":0,"x_max":0,"ha":431},"-":{"x_min":32.875,"x_max":251.921875,"ha":361,"o":"m 159 729 l 176 729 l 222 735 l 239 729 l 251 613 l 251 566 l 251 550 l 222 543 l 147 543 l 129 543 l 112 543 l 95 543 l 54 550 l 37 550 q 32 604 32 573 q 43 694 32 645 l 37 717 l 43 735 l 159 729 "},"Q":{"x_min":0.671875,"x_max":711.609375,"ha":840,"o":"m 393 1237 q 465 1213 427 1232 l 483 1207 l 501 1207 l 513 1201 l 555 1177 l 561 1165 l 585 1165 q 657 1081 609 1127 q 675 1022 662 1056 q 693 919 688 980 q 699 847 699 893 l 705 830 l 699 788 q 705 739 705 769 l 705 691 q 711 572 712 642 q 705 524 706 554 l 711 505 q 699 494 704 502 q 711 482 706 492 q 699 408 699 447 q 705 350 699 383 q 699 248 698 311 l 687 218 l 687 200 l 687 182 q 639 110 674 152 l 633 92 q 681 2 646 51 l 681 -33 q 633 -87 653 -51 q 561 -159 591 -107 l 537 -159 q 483 -39 495 -113 q 417 -15 457 -21 q 399 20 412 3 q 406 114 406 58 q 405 152 406 139 l 405 194 q 453 338 456 244 q 447 514 447 383 l 447 554 l 441 572 l 447 590 l 447 608 l 441 632 l 441 661 l 447 686 l 441 716 l 441 758 l 447 788 q 449 826 449 805 q 441 919 449 866 l 441 950 l 387 997 l 387 1171 q 393 1237 385 1197 m 309 1219 q 298 1137 298 1180 q 309 1045 298 1095 l 303 1028 q 255 950 291 988 l 255 878 l 255 859 l 255 758 l 255 733 l 255 710 l 255 686 l 255 661 l 255 644 l 255 619 l 249 590 q 252 550 252 571 q 249 500 252 531 l 249 422 l 249 398 l 255 374 l 249 350 q 256 269 256 317 q 255 236 256 248 q 309 182 273 206 q 315 164 309 173 q 307 111 307 139 q 321 38 307 76 l 309 -21 l 231 -15 q 0 428 0 127 q 9 554 0 490 l 9 883 l 15 908 l 45 1028 l 51 1051 q 255 1225 123 1159 l 309 1219 "},"M":{"x_min":-0.671875,"x_max":789.390625,"ha":920,"o":"m 613 1238 q 707 1225 653 1225 q 764 1228 731 1225 l 775 1222 q 779 1156 779 1193 q 778 1106 779 1124 l 777 1089 l 777 1072 l 775 1002 l 775 985 l 781 973 q 786 944 779 958 q 781 910 781 925 q 784 880 781 897 q 782 869 782 875 q 783 857 782 865 q 781 840 781 849 q 783 828 781 836 l 776 805 l 781 770 l 781 747 l 779 701 l 779 672 q 783 613 778 651 l 781 550 l 787 538 l 781 515 q 783 489 783 504 q 779 451 783 473 q 783 404 785 434 l 789 370 l 776 335 l 788 311 q 779 242 787 285 l 784 195 l 784 179 q 782 169 782 174 q 783 161 782 166 l 783 143 l 783 126 q 781 117 781 122 q 782 109 781 114 l 781 86 l 780 22 q 677 9 735 9 q 600 14 643 9 q 581 189 581 79 l 587 201 q 582 252 582 227 q 590 322 582 285 q 583 372 583 347 q 587 409 583 390 q 583 479 582 438 l 584 763 q 585 788 585 779 q 580 845 585 812 l 587 1123 q 589 1198 585 1153 l 590 1215 l 613 1238 m 44 1229 q 57 1230 48 1230 q 108 1222 82 1230 q 154 1226 124 1226 l 172 1226 l 212 1225 q 250 1102 221 1169 l 250 1079 l 261 1067 l 282 968 l 292 945 q 303 915 293 931 l 308 880 q 341 787 314 836 q 356 722 340 756 l 362 688 l 390 676 l 421 762 l 434 808 l 441 842 l 453 853 l 459 876 q 505 864 482 876 q 506 846 506 858 q 497 777 506 812 l 503 765 l 497 748 l 502 731 l 501 708 l 501 690 l 499 609 q 497 587 497 598 q 503 545 497 567 l 497 528 l 502 504 q 493 377 492 456 l 498 337 l 472 233 l 460 227 l 460 210 l 459 192 l 447 169 l 446 146 l 434 118 l 428 94 q 425 76 425 87 q 427 60 425 71 l 415 19 q 356 9 391 12 q 341 91 343 46 l 330 132 l 319 149 l 320 172 l 308 185 l 308 187 q 303 202 308 194 l 298 237 l 293 266 l 282 284 l 277 307 l 265 330 l 245 424 l 228 442 q 190 564 223 504 q 168 634 186 592 l 169 652 l 152 676 q 126 769 149 716 l 115 798 q 104 828 113 812 q 66 939 98 876 l 67 956 l 55 968 l 50 1009 l 34 1049 l 17 1079 l 21 1212 l 44 1229 m 18 673 l 25 673 l 65 649 q 103 549 75 607 l 103 532 q 129 438 124 492 l 141 426 q 156 356 139 391 l 161 327 l 172 304 l 177 275 q 204 204 191 250 l 202 88 l 212 48 l 212 30 l 205 7 l 199 -9 q 141 -14 179 -8 l 77 -12 l 60 -17 l 42 -11 l 31 -16 l 13 -10 q 2 18 11 4 q 5 53 5 32 q 0 111 5 80 q 2 149 2 131 q 1 174 2 158 l 2 238 l 8 256 l 10 302 l 5 354 l 0 383 l 2 465 q 2 488 2 472 q 10 575 2 528 l 12 615 l 6 644 l 18 673 l 25 673 l 18 673 "},"C":{"x_min":12.53125,"x_max":656.796875,"ha":786,"o":"m 407 1237 q 639 999 588 1196 q 651 923 651 963 q 645 866 651 895 q 593 842 618 864 q 505 808 552 836 l 494 802 l 470 808 q 464 876 464 837 q 465 912 464 899 l 465 947 q 395 1011 442 986 l 395 1220 q 407 1237 404 1224 m 314 1226 q 308 1150 315 1194 q 314 1069 314 1115 l 314 1051 l 314 1028 q 244 965 264 1015 q 243 931 243 954 q 250 837 243 887 l 244 819 l 244 796 l 250 779 q 245 752 245 764 q 250 721 245 740 q 243 667 243 699 q 244 646 243 653 l 244 529 l 244 483 l 239 465 l 244 442 l 239 425 q 241 383 241 409 q 239 332 241 357 l 250 233 q 308 118 300 193 q 302 69 302 94 q 308 13 302 44 l 302 2 l 250 -9 q 41 152 130 34 q 18 303 16 215 l 18 367 q 12 448 12 402 l 18 460 q 17 497 17 483 q 18 541 17 510 l 18 674 q 15 705 15 688 q 18 738 15 722 l 12 762 l 18 790 l 18 935 l 24 971 l 30 1011 q 70 1092 50 1040 l 76 1104 l 105 1133 l 110 1150 q 180 1185 142 1161 l 198 1191 l 215 1191 l 244 1214 l 262 1220 q 273 1231 268 1221 l 314 1226 m 593 413 l 633 396 l 650 385 q 656 325 656 356 q 639 217 656 273 q 414 6 589 6 q 384 8 404 6 q 389 106 382 50 l 389 129 q 384 176 384 148 l 395 193 l 389 204 q 470 280 443 221 q 471 307 471 288 q 465 408 471 350 l 488 448 l 593 413 "},"[":{"x_min":0,"x_max":0,"ha":191},"L":{"x_min":20,"x_max":636.453125,"ha":755,"o":"m 129 1222 q 159 1224 138 1224 q 238 1216 198 1224 q 254 1076 254 1155 q 249 987 254 1042 l 255 964 q 252 937 252 948 q 255 906 252 929 l 249 889 q 249 870 249 883 q 255 809 249 842 l 255 774 l 249 739 l 249 699 l 261 659 q 254 590 254 632 q 255 562 254 572 l 255 441 l 261 406 l 255 366 l 255 217 q 330 199 288 199 q 382 205 355 199 q 429 196 402 196 q 462 200 443 196 q 529 191 496 191 q 606 200 562 191 l 628 188 q 636 86 636 149 q 635 27 636 48 l 635 10 q 583 -6 611 0 q 498 0 547 0 q 451 -1 467 0 l 106 -1 l 83 4 l 60 4 l 36 10 l 20 21 l 20 309 q 20 352 20 322 q 20 406 20 387 q 22 452 22 425 q 20 504 22 480 l 25 544 l 20 1182 l 31 1211 l 71 1216 l 117 1216 l 119 1216 q 129 1222 125 1216 "},"!":{"x_min":0,"x_max":0,"ha":169}," ":{"x_min":0,"x_max":0,"ha":264},"{":{"x_min":0,"x_max":0,"ha":285},"X":{"x_min":18.640625,"x_max":721.21875,"ha":847,"o":"m 694 1239 q 721 1180 721 1220 q 644 1003 684 1117 l 637 992 l 631 975 l 624 952 l 585 856 l 573 833 l 566 811 l 559 788 l 553 764 l 534 737 l 517 743 q 470 861 509 800 q 455 908 468 881 q 440 960 456 932 l 425 1019 l 414 1036 l 415 1054 q 466 1167 451 1099 q 498 1235 482 1195 l 677 1228 l 694 1239 m 232 1235 q 294 1192 263 1227 q 340 1063 298 1127 q 376 952 342 1013 q 387 939 376 943 q 411 840 385 892 l 416 805 q 447 723 425 771 q 462 665 449 701 l 466 647 l 472 636 l 472 634 q 477 618 472 627 l 487 589 l 498 559 q 528 477 500 522 l 527 459 l 544 430 q 580 347 549 388 l 580 324 q 605 254 593 295 l 622 225 q 653 148 624 183 q 688 37 655 96 l 694 19 l 687 -3 q 644 0 664 0 q 623 0 631 0 l 583 1 l 560 2 l 519 4 l 502 4 l 473 6 q 426 123 446 51 l 416 141 l 416 158 q 405 170 416 164 q 369 276 403 223 l 365 305 l 340 381 l 323 417 l 313 440 l 308 463 l 298 493 l 288 522 l 247 651 l 237 663 l 231 686 l 222 727 q 196 792 211 762 l 186 838 l 170 874 l 161 915 l 145 956 q 108 1050 134 994 l 104 1068 q 83 1114 98 1090 q 51 1186 79 1150 l 53 1220 q 119 1232 83 1232 q 174 1226 145 1232 q 232 1235 200 1225 m 223 491 q 258 373 232 446 l 267 315 q 302 214 302 266 q 270 107 302 163 q 237 10 264 59 q 205 8 222 8 q 150 14 175 8 l 51 6 l 18 25 l 20 71 q 83 208 55 124 l 90 219 l 102 241 l 110 276 l 122 292 l 129 309 l 135 338 l 148 355 q 175 440 154 394 q 188 474 176 459 l 200 497 l 223 491 "},"P":{"x_min":0,"x_max":618.484375,"ha":744,"o":"m 354 1237 q 618 899 618 1194 q 617 857 618 886 q 618 821 618 833 q 336 542 618 548 q 330 633 330 580 q 330 671 330 657 l 330 729 q 412 823 398 753 q 406 928 414 863 l 406 992 q 330 1038 381 1036 q 330 1056 330 1044 q 336 1114 330 1083 l 330 1196 q 332 1205 332 1200 q 330 1214 332 1211 l 354 1237 m 143 1231 l 161 1231 l 184 1231 l 202 1220 q 212 1137 212 1181 q 202 1045 212 1093 q 214 910 214 991 l 208 898 l 214 881 l 214 781 l 214 752 l 214 729 l 214 624 l 214 600 l 214 583 l 219 571 l 219 531 l 219 495 l 225 455 l 225 349 l 225 326 l 225 209 l 225 191 l 225 145 l 225 99 l 225 52 l 219 10 q 82 -2 165 -2 q 15 0 51 -2 q 8 155 8 59 q 9 221 8 198 l 9 448 l 9 472 l 3 507 l 9 571 q 3 688 2 619 l 3 1074 q 0 1117 0 1096 q 15 1231 0 1167 l 120 1231 l 143 1231 "},"%":{"x_min":0,"x_max":0,"ha":431},"#":{"x_min":0,"x_max":0,"ha":431},"_":{"x_min":0,"x_max":0,"ha":332},"+":{"x_min":0,"x_max":0,"ha":431},")":{"x_min":0,"x_max":0,"ha":260},"'":{"x_min":0,"x_max":0,"ha":115},"}":{"x_min":0,"x_max":0,"ha":244},"a":{"x_min":12.859375,"x_max":705.296875,"ha":834,"o":"m 292 1258 q 382 1231 332 1231 q 443 1240 408 1231 q 472 1211 451 1225 q 490 1089 472 1164 l 490 1059 l 495 1036 l 495 1034 q 501 1019 495 1027 l 507 973 l 513 949 l 513 920 q 524 908 519 918 l 524 906 q 531 891 524 899 q 530 878 530 887 q 542 810 530 849 q 571 699 539 760 q 588 594 570 651 l 594 554 q 617 455 599 518 q 635 362 620 417 l 635 345 l 635 343 q 641 332 635 338 l 653 286 l 653 263 l 670 240 l 676 147 l 682 135 l 705 42 l 705 2 l 600 7 l 583 7 q 536 2 559 9 l 518 7 l 490 7 q 449 193 459 78 q 389 200 423 200 q 356 199 367 200 q 344 210 354 205 l 339 251 q 367 391 370 310 l 414 408 q 391 501 401 445 l 385 513 l 385 515 q 379 524 385 521 q 380 541 380 530 q 373 600 380 569 q 367 659 367 625 q 350 722 356 681 l 344 745 l 339 775 q 326 862 326 809 l 321 874 l 309 903 l 303 944 l 297 973 q 286 1019 290 989 q 286 1026 286 1021 q 274 1054 286 1040 l 269 1095 l 257 1129 l 257 1165 l 245 1199 l 251 1234 q 292 1258 276 1232 m 228 833 q 240 740 227 790 q 239 727 239 736 q 251 664 239 698 l 251 641 l 257 630 l 257 606 l 263 583 l 274 467 l 274 465 q 280 449 274 457 l 280 432 l 286 408 q 269 321 289 366 l 269 275 l 263 257 l 263 240 l 257 187 l 251 176 l 251 153 q 240 48 238 113 l 233 36 l 228 13 q 134 -4 185 14 l 59 2 l 42 2 l 24 2 l 12 18 q 30 106 12 59 q 59 234 33 156 l 71 316 l 77 350 l 88 391 l 105 472 l 105 501 l 118 524 q 134 623 117 563 l 158 745 l 170 792 l 170 815 l 187 845 l 228 833 "},"T":{"x_min":18.640625,"x_max":671.71875,"ha":800,"o":"m 651 1225 q 671 1101 671 1167 q 662 1011 671 1062 l 548 1011 l 530 1011 l 513 1011 l 502 1017 l 479 1011 l 461 1017 l 461 948 l 461 931 l 461 833 l 461 810 l 461 735 l 461 707 l 461 643 l 461 620 l 467 597 l 461 562 l 467 539 l 467 505 l 461 482 q 467 390 468 443 l 467 356 l 467 321 l 467 280 l 467 229 q 466 208 466 223 q 473 136 466 177 l 473 113 l 473 96 l 473 56 l 473 16 q 388 -1 437 -1 q 329 4 361 -1 q 266 -6 302 -6 l 243 62 q 251 115 251 86 q 248 148 251 132 l 248 246 l 249 248 q 243 257 249 253 q 246 307 246 283 q 237 407 246 350 q 241 442 241 422 q 237 482 241 463 l 237 505 q 240 547 240 527 q 237 597 240 568 l 237 885 l 243 925 l 237 1000 l 225 1011 q 162 1000 198 1011 q 108 1007 140 1007 q 87 1006 95 1007 l 70 1006 l 53 1006 l 35 1011 q 23 1091 23 1045 q 24 1110 23 1103 l 24 1173 l 18 1202 l 24 1213 q 106 1220 60 1220 q 139 1219 127 1220 l 156 1219 l 220 1219 l 323 1219 l 340 1219 q 368 1217 358 1217 q 449 1225 403 1217 l 467 1225 l 507 1225 l 525 1225 l 553 1225 l 599 1225 l 622 1230 l 651 1225 "},"=":{"x_min":0,"x_max":0,"ha":431},"N":{"x_min":-0.671875,"x_max":628.65625,"ha":788,"o":"m 130 -2 q 105 -4 118 -4 q 10 26 53 -4 l 10 95 l 10 113 l 10 210 l 10 233 l 10 250 q 11 267 11 256 q 5 314 11 290 q 10 349 10 329 q 5 389 10 369 q 9 429 9 407 q 6 469 9 446 q 6 486 6 475 q 0 539 6 510 q 2 556 2 548 q 0 573 2 565 l 6 596 q 0 655 0 621 q 0 677 0 670 q 0 707 0 686 q 7 786 0 743 l 7 804 l 30 798 q 59 752 37 775 q 127 596 73 672 l 132 573 l 155 533 l 184 463 l 190 452 l 207 434 l 207 411 l 230 383 l 236 354 l 247 330 q 259 302 248 317 q 244 193 244 252 q 258 71 244 136 l 252 60 l 246 14 l 130 -2 m 609 12 q 590 11 596 11 q 505 42 548 11 q 448 174 492 101 l 442 198 l 431 209 q 391 295 421 250 l 385 313 l 374 330 q 334 410 364 370 l 334 428 l 322 451 l 305 469 q 265 543 299 508 q 254 578 263 560 l 254 579 q 248 590 254 585 q 202 676 234 636 l 202 693 l 185 722 l 168 751 l 151 780 q 105 867 141 824 l 105 884 q 71 941 89 906 l 59 953 l 53 965 q 13 1045 46 1005 l 2 1103 q 4 1133 4 1118 q 2 1167 4 1150 l 2 1207 q 50 1214 26 1214 q 106 1207 75 1214 l 147 1217 l 170 1217 l 187 1212 q 244 1097 201 1167 l 244 1095 q 250 1085 244 1089 q 255 1068 250 1077 q 278 1010 261 1049 l 290 992 q 295 975 290 985 l 307 946 q 341 883 316 917 l 341 866 l 353 849 q 370 814 357 834 l 381 779 l 392 750 l 410 716 l 427 681 l 438 658 l 455 623 l 467 589 l 484 554 q 535 456 501 509 q 570 387 543 420 q 587 341 571 369 l 610 306 q 621 266 613 284 l 621 122 l 626 110 l 621 93 l 620 24 q 609 12 615 23 m 576 566 l 577 617 l 554 669 l 531 727 l 519 739 l 514 756 l 502 767 q 479 825 497 786 l 467 842 q 456 859 464 853 l 450 882 l 445 912 l 427 929 l 422 952 l 405 969 q 399 1009 405 990 l 400 1055 q 398 1083 398 1064 q 406 1154 398 1117 q 404 1180 404 1170 q 406 1211 404 1190 l 440 1217 q 477 1215 452 1215 q 573 1222 521 1215 l 590 1222 q 602 1211 592 1216 q 612 1119 612 1170 q 606 1038 612 1076 l 613 1020 l 612 922 q 613 896 613 914 q 612 865 613 876 q 617 819 611 837 l 617 801 l 617 750 l 617 727 l 623 652 l 628 577 l 622 548 l 576 566 "},"2":{"x_min":16.609375,"x_max":674.421875,"ha":804,"o":"m 326 1140 l 326 1123 q 325 1110 325 1118 q 332 1076 325 1092 l 332 1059 l 332 1043 l 326 1025 q 246 916 254 996 q 218 876 226 899 l 143 905 l 125 911 l 114 916 l 97 922 l 80 928 l 68 939 l 51 939 l 34 945 l 28 963 q 291 1237 57 1180 l 326 1214 l 326 1140 m 429 1220 q 674 895 674 1116 q 630 687 674 803 q 572 613 597 661 l 555 601 l 544 590 l 527 579 l 515 567 l 504 550 q 458 516 488 541 l 441 498 l 429 486 l 412 469 l 395 453 l 378 441 l 286 349 l 258 280 q 177 292 222 279 q 169 290 171 290 q 160 292 167 290 l 137 292 l 103 292 l 91 286 l 74 286 l 51 298 l 51 328 l 51 366 q 131 476 100 407 q 160 504 147 487 l 200 538 l 200 556 q 269 607 238 566 q 401 693 333 628 l 424 727 q 452 796 437 752 l 464 807 q 473 890 473 847 q 469 951 473 918 q 399 1128 399 1028 q 412 1220 399 1170 l 429 1220 m 40 229 q 123 221 76 221 q 183 223 155 221 l 200 217 l 206 229 q 272 221 235 221 q 321 223 298 221 q 352 220 338 220 q 389 223 367 220 l 412 217 l 435 217 q 481 223 451 216 q 550 217 508 217 q 578 217 569 217 l 601 229 q 652 183 641 222 l 647 69 l 647 51 l 647 29 l 647 11 q 635 0 639 11 q 599 2 619 2 q 509 -5 563 2 l 492 0 l 469 0 l 406 0 l 384 0 l 326 0 l 298 0 l 258 0 q 191 4 230 4 q 108 0 151 4 l 91 6 l 74 0 l 34 6 q 16 103 16 50 q 40 229 16 164 "},"j":{"x_min":20.671875,"x_max":630.34375,"ha":765,"o":"m 463 1230 q 536 1220 496 1220 q 595 1225 563 1220 l 613 1219 q 621 1091 621 1165 q 618 995 621 1040 l 618 977 q 620 952 620 971 q 618 914 620 929 l 618 891 l 618 874 l 618 846 q 625 779 625 818 q 624 754 625 762 l 624 737 l 624 719 l 624 679 l 624 661 l 624 639 l 624 621 l 624 604 l 624 587 l 624 564 l 624 489 l 624 472 l 630 461 l 624 421 l 624 403 l 624 380 l 624 323 l 624 260 l 624 242 l 624 225 l 624 208 l 613 162 q 377 7 541 21 q 371 80 371 39 q 371 110 371 99 q 365 128 371 119 l 371 156 l 360 174 q 411 248 375 216 l 400 265 q 414 368 414 311 q 411 421 414 396 q 413 458 413 432 q 411 501 413 486 q 416 543 416 520 q 411 587 416 567 q 414 606 414 597 q 411 627 414 617 l 418 656 l 411 691 l 418 719 l 411 748 q 418 794 418 764 l 411 868 q 414 906 414 887 q 411 949 414 927 l 418 989 l 411 1024 l 411 1104 l 418 1150 q 411 1196 413 1166 q 463 1230 428 1217 m 234 426 l 234 363 l 239 346 l 234 323 l 239 305 l 234 282 l 234 265 l 239 242 l 245 219 l 285 196 l 285 128 q 290 86 290 104 q 274 7 290 47 l 279 -4 q 20 283 20 54 q 44 438 20 355 q 182 484 108 444 l 234 484 l 234 426 "},"Z":{"x_min":16.609375,"x_max":637.8125,"ha":767,"o":"m 115 1230 l 133 1230 l 231 1230 l 255 1230 l 435 1224 l 469 1230 l 504 1230 l 603 1230 l 637 1219 l 637 1085 l 637 1062 l 631 1051 l 631 1028 q 574 917 597 987 q 544 848 560 894 l 521 802 l 515 784 q 481 697 497 753 l 469 691 l 469 674 l 458 662 l 458 639 l 440 622 q 388 488 426 562 l 353 402 l 347 390 l 342 367 l 324 338 l 312 303 l 295 274 l 295 245 q 360 238 324 238 q 435 245 397 238 q 498 233 464 233 l 515 240 l 539 240 l 556 240 l 579 240 l 603 240 l 620 245 l 631 227 q 630 200 630 219 q 637 129 630 164 l 631 94 q 637 77 631 86 l 631 60 l 637 42 l 637 13 l 614 2 q 553 -4 587 -4 q 481 2 517 -4 l 417 2 q 380 0 394 0 q 336 2 367 0 l 324 -3 q 278 -9 301 -2 q 266 2 277 -3 l 231 -3 q 165 2 203 2 q 139 2 148 2 l 121 2 l 104 2 l 63 2 l 46 2 l 17 8 l 16 29 l 17 54 l 17 94 l 23 106 l 17 129 l 17 187 l 28 222 q 87 343 70 268 q 127 436 113 382 l 139 454 l 144 471 q 167 535 157 496 q 208 598 182 564 l 208 622 q 231 680 224 646 l 243 686 l 249 703 l 260 738 q 289 825 283 774 q 359 987 323 882 q 292 994 331 994 q 266 993 275 994 l 220 993 l 203 993 l 185 993 l 104 998 l 28 1005 l 28 1196 l 46 1230 l 115 1230 "},"u":{"x_min":17.953125,"x_max":653.40625,"ha":775,"o":"m 89 1230 l 107 1230 l 207 1230 l 230 1230 q 239 1146 239 1192 q 236 1089 239 1116 l 236 1088 q 242 1078 236 1083 q 236 1031 236 1061 l 236 1013 q 237 979 237 1003 q 236 937 237 952 l 242 901 q 236 819 235 866 l 242 778 l 242 743 l 242 708 l 242 632 l 242 614 l 242 596 l 242 520 l 242 502 q 241 488 241 493 q 248 455 241 472 l 242 432 q 249 379 249 408 q 242 320 249 350 l 248 303 l 248 261 l 248 244 l 253 221 q 301 109 301 185 q 298 62 298 90 q 301 3 298 32 q 283 -8 289 0 q 48 179 130 18 q 30 238 48 205 l 31 259 q 25 356 31 301 l 25 373 q 26 382 26 377 q 25 391 26 388 l 25 561 l 30 579 l 30 596 q 23 666 23 628 q 25 708 23 686 q 19 833 19 758 l 19 855 l 19 1136 q 17 1171 17 1158 q 19 1213 17 1183 l 19 1230 l 89 1230 m 571 1230 l 588 1230 l 612 1230 l 624 1224 q 637 1108 637 1177 q 635 1054 637 1083 q 634 1034 634 1042 q 641 978 634 1009 l 635 960 l 641 948 l 641 931 l 635 913 l 641 872 l 641 849 l 641 743 l 641 720 l 641 702 l 641 678 l 641 573 l 641 555 l 641 537 l 647 438 l 647 414 l 647 396 l 647 362 l 647 332 l 653 291 q 641 208 645 261 q 624 168 628 193 q 412 -8 555 48 q 395 9 408 2 l 394 52 l 395 103 l 395 120 l 395 122 q 388 132 395 128 l 388 185 q 441 285 428 222 l 454 291 l 447 320 q 430 449 447 367 l 424 837 l 418 872 l 418 937 q 424 1031 424 977 q 424 1046 424 1036 q 418 1089 424 1065 l 418 1166 q 441 1230 419 1194 l 547 1230 l 571 1230 "},"1":{"x_min":22.703125,"x_max":331.953125,"ha":445,"o":"m 219 1230 l 319 1230 q 330 1219 320 1224 l 330 1148 l 330 1131 l 330 1031 l 330 1007 l 330 931 l 330 901 l 330 837 l 330 655 l 330 637 l 324 614 l 324 590 l 324 573 q 325 563 325 568 q 324 550 325 560 q 331 478 331 518 q 330 444 331 468 l 330 426 l 330 379 l 330 362 q 331 338 331 347 q 324 267 331 309 l 330 256 l 330 232 l 330 191 l 330 173 l 324 155 l 330 138 q 323 79 323 113 q 324 56 323 64 l 330 15 q 317 17 325 17 q 301 15 310 17 q 215 -9 261 -9 q 195 -8 209 -9 q 148 -2 176 -8 l 131 -2 q 133 21 133 9 q 131 50 133 35 q 138 122 138 78 q 137 150 138 140 l 137 550 l 142 579 q 136 646 136 607 q 137 678 136 667 l 142 708 q 139 746 139 728 q 142 790 139 764 q 136 857 136 819 q 137 890 136 878 l 137 978 q 114 990 134 990 q 36 972 87 990 q 22 1085 22 1022 q 25 1142 22 1116 q 131 1230 82 1169 l 201 1230 l 219 1230 "},"k":{"x_min":20.671875,"x_max":656.125,"ha":785,"o":"m 178 1217 l 194 1217 l 218 1217 l 235 1217 q 234 1207 234 1213 q 252 1176 234 1192 q 239 1093 239 1140 q 241 1055 239 1075 q 235 1009 235 1039 l 235 992 l 235 975 l 235 957 l 229 940 q 238 878 238 908 q 235 842 238 866 q 237 811 237 833 q 235 773 237 787 l 241 756 q 235 709 235 732 q 241 657 235 686 l 241 634 q 239 601 239 615 q 241 560 239 590 l 241 444 l 241 427 l 241 404 l 241 346 l 247 329 q 240 271 240 305 q 241 248 240 256 l 235 225 l 241 173 l 241 115 l 241 99 l 241 81 l 241 58 l 241 41 l 235 0 q 171 -10 207 0 l 154 -10 q 108 -5 131 -5 q 56 -10 85 -5 q 28 64 25 16 l 28 156 l 28 410 l 22 433 l 28 450 l 22 484 q 26 516 26 499 q 22 548 26 533 l 28 663 l 28 680 l 28 682 q 22 692 28 688 l 28 703 l 28 744 q 20 834 20 786 q 22 876 20 847 l 22 1205 l 62 1217 l 178 1217 m 443 1217 q 489 1214 461 1214 q 546 1217 519 1214 l 586 1217 l 610 1217 l 627 1217 l 650 1211 l 616 1044 l 610 1026 l 604 1003 l 604 986 l 593 975 l 586 957 q 569 894 582 930 l 563 871 q 535 744 540 819 l 523 733 q 546 600 521 667 l 546 583 l 546 560 l 552 542 l 558 525 q 563 507 558 517 l 563 491 q 581 398 567 448 l 586 369 q 598 306 586 342 q 616 237 598 278 l 616 219 q 621 191 616 207 l 639 99 l 644 69 l 656 41 l 644 0 q 616 -2 634 -2 q 581 0 597 -2 l 540 -10 l 500 0 l 483 -10 l 448 -10 q 425 81 447 29 q 426 107 426 89 q 425 139 426 128 l 414 156 l 414 185 q 402 208 414 198 l 408 225 q 385 306 408 265 l 385 346 l 374 375 l 374 415 l 356 438 l 362 461 q 344 519 348 484 l 333 531 l 333 680 q 339 738 332 707 l 339 761 l 333 779 l 333 819 l 333 842 q 385 1026 383 918 q 414 1130 411 1067 l 425 1176 l 431 1194 l 443 1217 "},"<":{"x_min":64.75,"x_max":610.6875,"ha":674,"o":"m 610 -1 l 393 609 l 610 1219 l 268 1219 l 64 609 l 268 -1 l 610 -1 "},"t":{"x_min":18.640625,"x_max":671.71875,"ha":800,"o":"m 651 1225 q 671 1101 671 1167 q 662 1011 671 1062 l 548 1011 l 530 1011 l 513 1011 l 502 1017 l 479 1011 l 461 1017 l 461 948 l 461 931 l 461 833 l 461 810 l 461 735 l 461 707 l 461 643 l 461 620 l 467 597 l 461 562 l 467 539 l 467 505 l 461 482 q 467 390 468 443 l 467 356 l 467 321 l 467 280 l 467 229 q 466 208 466 223 q 473 136 466 177 l 473 113 l 473 96 l 473 56 l 473 16 q 388 -1 437 -1 q 329 4 361 -1 q 266 -6 302 -6 l 243 62 q 251 115 251 86 q 248 148 251 132 l 248 246 l 249 248 q 243 257 249 253 q 246 307 246 283 q 237 407 246 350 q 241 442 241 422 q 237 482 241 463 l 237 505 q 240 547 240 527 q 237 597 240 568 l 237 885 l 243 925 l 237 1000 l 225 1011 q 162 1000 198 1011 q 108 1007 140 1007 q 87 1006 95 1007 l 70 1006 l 53 1006 l 35 1011 q 23 1091 23 1045 q 24 1110 23 1103 l 24 1173 l 18 1202 l 24 1213 q 106 1220 60 1220 q 139 1219 127 1220 l 156 1219 l 220 1219 l 323 1219 l 340 1219 q 368 1217 358 1217 q 449 1225 403 1217 l 467 1225 l 507 1225 l 525 1225 l 553 1225 l 599 1225 l 622 1230 l 651 1225 "},"W":{"x_min":18.640625,"x_max":931.453125,"ha":1049,"o":"m 488 1237 q 546 1220 515 1236 l 563 1144 l 563 1127 l 581 1069 q 593 1011 592 1044 q 610 947 605 984 l 616 924 q 633 889 620 907 l 633 872 l 633 870 q 639 860 633 863 q 656 779 639 828 q 668 750 657 765 q 685 680 669 723 l 697 634 q 714 599 701 616 l 725 552 q 738 524 728 538 l 743 483 l 778 384 q 761 257 778 333 l 755 216 l 755 198 l 749 181 l 749 164 l 743 141 l 743 123 l 738 106 l 732 82 l 725 59 l 725 25 l 714 2 l 645 2 l 610 134 l 598 187 l 593 198 l 569 291 q 546 390 567 332 l 540 419 l 529 442 q 523 472 529 455 l 517 506 l 505 535 l 500 570 l 488 611 q 477 645 487 627 q 447 767 477 702 q 424 866 447 810 q 413 906 422 883 l 401 953 q 436 1069 407 1007 l 436 1098 l 447 1115 l 459 1162 l 465 1185 l 477 1203 l 477 1226 q 488 1237 482 1227 m 929 1237 q 931 1199 931 1219 q 906 1034 931 1129 l 906 1017 l 894 970 q 877 860 894 927 q 859 767 879 817 l 865 756 q 848 692 860 722 l 848 640 l 813 628 l 790 663 q 791 682 791 670 q 755 802 791 742 q 743 854 754 824 l 738 872 l 732 901 l 720 924 l 720 947 l 702 965 q 691 982 699 976 q 709 1074 690 1032 q 720 1150 709 1106 q 723 1182 723 1165 q 720 1214 723 1201 l 732 1237 l 929 1237 m 239 1226 q 279 1051 272 1154 l 291 1034 l 291 1017 q 297 999 291 1009 l 297 982 l 308 958 q 320 883 308 928 l 320 866 l 325 842 q 343 785 328 817 l 349 744 l 349 727 q 355 709 349 718 l 361 692 l 361 669 l 389 576 q 401 512 391 545 q 418 448 405 483 l 418 402 q 401 297 405 362 l 395 286 q 389 239 389 269 l 384 216 l 378 193 l 366 118 l 361 88 l 355 59 l 349 30 l 349 2 q 334 2 344 2 q 285 -4 310 2 q 256 54 268 16 q 257 64 257 57 q 245 106 257 85 q 232 164 245 134 l 232 181 q 209 280 228 223 l 204 303 q 192 367 203 332 l 192 396 l 180 419 q 163 500 180 455 l 163 529 l 152 552 q 146 581 152 566 q 129 663 142 636 l 123 721 l 111 761 l 111 779 l 100 831 l 93 854 l 82 889 l 76 930 l 53 1040 l 53 1057 l 18 1191 l 24 1226 l 239 1226 "},"v":{"x_min":18.640625,"x_max":651.375,"ha":781,"o":"m 576 1230 l 599 1230 l 616 1230 l 639 1230 q 651 1219 641 1224 q 622 1045 651 1146 q 605 969 622 1010 l 605 946 l 599 922 l 587 864 l 581 847 l 581 824 l 576 777 l 564 754 l 558 719 l 552 691 q 535 609 551 657 l 523 510 l 500 487 q 477 598 474 533 l 465 609 l 442 708 l 436 725 q 413 830 433 773 q 401 859 412 843 l 390 882 l 401 934 l 407 946 l 413 986 l 419 1010 l 424 1051 l 430 1085 l 436 1103 q 454 1184 439 1134 l 460 1207 l 471 1230 l 576 1230 m 227 1207 q 262 1074 234 1158 l 268 1056 l 268 1038 l 268 1022 l 279 1004 q 279 994 279 1000 q 291 940 279 968 l 297 899 q 302 882 297 891 l 308 864 q 320 836 309 849 l 320 818 l 331 795 q 349 708 331 755 l 349 691 q 378 603 354 649 l 378 580 l 395 499 l 401 481 l 413 435 q 430 365 414 408 q 442 318 434 338 l 454 278 l 465 238 q 442 145 465 189 q 419 11 441 92 l 413 0 q 355 -6 384 -6 q 291 0 327 -6 q 274 34 286 18 q 274 52 274 40 q 233 214 274 130 q 234 226 234 218 q 222 284 234 257 q 215 318 222 300 l 204 383 l 192 406 q 186 435 192 419 l 181 487 l 157 557 q 152 574 157 564 l 152 609 l 140 626 l 140 661 q 111 771 125 703 q 88 853 107 808 q 82 911 88 878 l 70 922 l 59 969 q 41 1062 59 1007 l 18 1161 l 18 1201 q 95 1214 53 1214 q 123 1213 104 1214 l 124 1213 q 134 1219 130 1213 l 227 1207 "},">":{"x_min":64.75,"x_max":610.6875,"ha":674,"o":"m 407 1219 l 64 1219 l 281 609 l 64 -1 l 407 -1 l 610 609 l 407 1219 "},"s":{"x_min":18.640625,"x_max":733.421875,"ha":846,"o":"m 245 1237 q 316 1220 279 1236 q 315 1196 315 1212 q 321 1125 315 1165 q 316 1059 314 1094 l 310 1047 l 316 1030 q 304 982 308 1009 q 268 935 283 960 q 262 863 262 908 q 458 733 338 779 q 541 674 489 698 l 565 650 q 636 584 599 628 l 647 579 l 701 472 l 713 448 q 731 394 714 421 q 733 350 733 372 q 571 33 733 165 q 434 -8 513 -4 q 426 80 426 29 q 428 139 426 97 l 422 228 q 511 371 504 268 q 434 478 489 426 l 392 489 q 333 537 371 512 l 316 543 l 310 555 l 292 560 l 286 573 q 39 957 39 678 q 43 1024 39 985 q 79 1077 62 1045 q 114 1142 96 1102 q 144 1172 130 1152 q 226 1231 189 1188 l 228 1231 q 245 1237 237 1231 m 392 1231 q 690 994 608 1214 q 698 946 698 971 q 690 893 698 921 q 588 881 650 892 l 571 881 l 569 881 q 553 875 561 881 l 529 875 l 505 869 l 487 869 l 470 881 q 464 946 463 910 q 416 994 449 975 l 392 1030 l 392 1166 q 393 1178 393 1170 q 386 1213 393 1198 l 392 1231 m 221 389 q 333 193 236 252 q 342 98 342 151 q 333 -20 342 44 l 292 -8 l 274 -8 q 19 299 79 69 l 18 309 q 167 389 18 389 l 173 389 l 221 389 "},"B":{"x_min":12.53125,"x_max":646.625,"ha":774,"o":"m 383 1258 q 646 916 646 1203 q 618 704 646 823 q 589 669 592 698 q 506 622 550 659 l 589 568 l 601 563 q 645 372 645 472 q 630 251 645 315 q 348 -13 602 14 q 342 80 340 26 l 342 145 l 336 162 l 330 180 q 434 320 434 220 q 430 363 434 341 q 436 410 436 387 q 342 539 436 497 q 345 597 345 568 q 342 669 345 625 l 342 710 q 439 836 439 736 q 436 875 439 853 q 443 924 443 904 q 353 1057 443 1009 q 355 1073 355 1062 q 348 1110 355 1091 q 353 1165 353 1139 q 342 1246 353 1204 q 349 1245 344 1245 q 383 1258 366 1245 m 106 1246 q 171 1228 136 1243 l 218 1228 q 230 1211 221 1217 q 227 1149 227 1186 q 230 1075 227 1110 l 224 1051 l 224 1034 l 218 1016 l 224 992 l 224 957 l 224 934 l 230 910 l 230 798 l 224 781 q 230 745 224 765 q 227 714 227 734 q 230 675 227 694 l 224 663 l 224 627 q 230 551 222 594 l 224 498 l 218 463 q 224 416 224 444 l 230 381 q 221 283 221 335 q 224 221 221 265 l 230 210 l 224 186 l 224 139 l 230 104 l 236 56 l 224 15 q 119 -8 172 -8 q 24 10 72 -8 l 12 27 l 12 427 l 18 545 l 12 604 q 18 675 18 632 l 18 781 l 17 829 l 18 887 l 18 888 q 12 898 18 894 l 18 910 l 18 1069 q 19 1096 19 1077 q 12 1199 19 1142 l 12 1216 q 106 1246 50 1240 "},"?":{"x_min":0,"x_max":0,"ha":385},"H":{"x_min":20.671875,"x_max":690.703125,"ha":819,"o":"m 144 1244 q 249 1232 183 1244 l 255 1116 l 255 1099 l 255 1076 l 255 1058 l 255 1040 q 253 1011 253 1026 q 260 942 253 981 q 256 906 256 927 q 260 866 256 886 l 255 849 q 256 839 256 847 q 255 826 256 831 q 261 770 261 801 q 260 745 261 754 l 255 704 q 289 698 272 697 q 307 663 295 679 l 307 587 l 307 571 l 307 524 q 255 489 298 486 l 255 373 l 255 356 l 255 332 l 255 315 l 255 286 l 255 268 q 253 245 253 261 q 260 187 253 217 q 257 123 257 155 q 260 42 257 92 l 255 25 l 255 7 l 237 -4 q 176 4 207 4 q 139 2 165 4 q 122 3 133 3 q 104 2 110 3 q 86 -4 95 2 l 34 7 q 20 128 20 57 q 28 240 20 180 l 22 309 l 28 326 q 23 374 23 349 q 28 431 23 398 q 21 522 21 472 q 22 564 21 535 l 22 628 l 22 646 l 22 1215 q 144 1244 71 1241 m 690 1232 q 683 1131 683 1191 q 690 1006 683 1072 l 684 977 l 690 931 l 684 913 q 683 883 683 894 q 690 797 683 846 l 684 756 l 690 733 l 684 640 l 690 628 l 684 605 l 690 594 l 690 576 l 684 541 l 684 507 l 690 472 l 684 437 q 690 344 683 398 l 690 326 l 690 257 l 690 240 l 690 141 l 690 118 l 690 42 l 690 25 l 690 7 l 620 7 l 603 7 l 504 7 l 481 7 l 464 7 q 457 86 457 41 q 458 118 457 107 l 452 390 q 455 440 455 411 q 452 501 455 472 q 405 518 425 499 q 409 553 409 537 q 405 594 409 570 l 405 675 q 458 704 418 698 q 460 734 460 718 q 446 820 460 775 q 449 841 449 829 q 446 866 449 855 l 452 959 l 452 977 l 446 988 l 446 1047 q 451 1108 451 1073 q 446 1174 451 1144 q 470 1232 451 1197 l 690 1232 "},"c":{"x_min":12.53125,"x_max":656.796875,"ha":786,"o":"m 407 1237 q 639 999 588 1196 q 651 923 651 963 q 645 866 651 895 q 593 842 618 864 q 505 808 552 836 l 494 802 l 470 808 q 464 876 464 837 q 465 912 464 899 l 465 947 q 395 1011 442 986 l 395 1220 q 407 1237 404 1224 m 314 1226 q 308 1150 315 1194 q 314 1069 314 1115 l 314 1051 l 314 1028 q 244 965 264 1015 q 243 931 243 954 q 250 837 243 887 l 244 819 l 244 796 l 250 779 q 245 752 245 764 q 250 721 245 740 q 243 667 243 699 q 244 646 243 653 l 244 529 l 244 483 l 239 465 l 244 442 l 239 425 q 241 383 241 409 q 239 332 241 357 l 250 233 q 308 118 300 193 q 302 69 302 94 q 308 13 302 44 l 302 2 l 250 -9 q 41 152 130 34 q 18 303 16 215 l 18 367 q 12 448 12 402 l 18 460 q 17 497 17 483 q 18 541 17 510 l 18 674 q 15 705 15 688 q 18 738 15 722 l 12 762 l 18 790 l 18 935 l 24 971 l 30 1011 q 70 1092 50 1040 l 76 1104 l 105 1133 l 110 1150 q 180 1185 142 1161 l 198 1191 l 215 1191 l 244 1214 l 262 1220 q 273 1231 268 1221 l 314 1226 m 593 413 l 633 396 l 650 385 q 656 325 656 356 q 639 217 656 273 q 414 6 589 6 q 384 8 404 6 q 389 106 382 50 l 389 129 q 384 176 384 148 l 395 193 l 389 204 q 470 280 443 221 q 471 307 471 288 q 465 408 471 350 l 488 448 l 593 413 "},"&":{"x_min":0,"x_max":0,"ha":330},"I":{"x_min":20,"x_max":245.140625,"ha":372,"o":"m 112 1224 q 160 1230 135 1230 q 233 1219 197 1230 l 245 1127 q 239 1081 239 1110 l 245 1069 l 245 1051 l 245 1034 l 245 1005 l 245 908 l 245 890 l 245 832 l 245 803 l 245 722 l 245 619 l 245 596 l 245 556 l 245 538 l 245 521 l 245 503 l 245 429 l 245 411 l 245 394 l 245 324 l 245 307 l 245 209 l 245 186 l 245 71 l 245 54 l 245 8 q 129 -9 199 8 q 58 2 98 2 q 37 2 45 2 l 31 36 l 31 365 l 26 382 l 31 411 l 26 446 l 31 475 l 26 509 q 25 528 25 516 q 31 584 25 553 l 26 596 l 26 769 l 26 792 l 26 890 q 22 969 22 929 q 26 1069 22 1008 l 20 1097 l 26 1115 l 20 1150 l 20 1207 l 43 1224 q 62 1222 55 1222 q 100 1230 79 1222 l 112 1224 "},"G":{"x_min":20,"x_max":681.203125,"ha":806,"o":"m 315 1191 l 315 1144 l 315 1143 q 321 1133 315 1138 l 321 1116 l 321 1098 q 263 1028 315 1051 q 240 976 256 1006 q 246 901 248 946 l 246 796 l 246 773 q 258 698 247 745 q 251 629 251 671 q 251 600 251 610 l 251 484 l 251 466 l 251 443 l 258 414 l 258 385 l 258 350 l 258 322 l 263 286 l 263 252 q 327 200 296 233 q 324 154 324 180 q 338 49 324 104 l 338 31 q 315 -8 323 12 q 27 387 27 47 q 37 524 27 451 q 32 586 32 555 q 37 657 32 617 q 26 669 36 663 l 37 680 q 32 723 32 699 q 37 773 32 749 q 31 820 30 792 q 28 836 28 826 q 31 855 28 846 l 31 884 q 20 918 29 899 q 31 958 31 937 q 26 988 31 971 l 37 1017 l 37 1046 q 234 1237 103 1162 l 310 1231 l 315 1191 m 437 1237 q 646 1000 614 1193 q 658 906 658 958 q 658 884 658 891 q 565 849 607 878 l 519 837 l 478 843 q 470 945 470 883 q 472 1000 470 981 q 414 1051 451 1027 q 411 1106 411 1078 q 414 1173 411 1133 l 414 1220 l 420 1231 l 422 1231 q 437 1237 429 1231 m 553 605 q 658 600 589 598 q 669 495 671 558 l 675 484 l 675 466 l 669 455 l 675 438 l 669 425 l 675 408 q 673 381 673 400 q 681 309 673 346 q 675 229 673 276 l 675 211 l 675 188 l 675 165 l 675 90 l 675 67 l 675 -8 q 646 -13 660 -13 q 570 43 600 -13 q 450 0 496 0 q 402 20 420 0 l 402 170 l 414 211 q 479 325 479 240 q 472 385 479 354 l 414 385 l 402 420 l 402 594 l 454 600 q 488 597 476 597 q 553 605 519 597 "},"(":{"x_min":0,"x_max":0,"ha":228},"`":{"x_min":0,"x_max":0,"ha":242},"U":{"x_min":17.953125,"x_max":653.40625,"ha":775,"o":"m 89 1230 l 107 1230 l 207 1230 l 230 1230 q 239 1146 239 1192 q 236 1089 239 1116 l 236 1088 q 242 1078 236 1083 q 236 1031 236 1061 l 236 1013 q 237 979 237 1003 q 236 937 237 952 l 242 901 q 236 819 235 866 l 242 778 l 242 743 l 242 708 l 242 632 l 242 614 l 242 596 l 242 520 l 242 502 q 241 488 241 493 q 248 455 241 472 l 242 432 q 249 379 249 408 q 242 320 249 350 l 248 303 l 248 261 l 248 244 l 253 221 q 301 109 301 185 q 298 62 298 90 q 301 3 298 32 q 283 -8 289 0 q 48 179 130 18 q 30 238 48 205 l 31 259 q 25 356 31 301 l 25 373 q 26 382 26 377 q 25 391 26 388 l 25 561 l 30 579 l 30 596 q 23 666 23 628 q 25 708 23 686 q 19 833 19 758 l 19 855 l 19 1136 q 17 1171 17 1158 q 19 1213 17 1183 l 19 1230 l 89 1230 m 571 1230 l 588 1230 l 612 1230 l 624 1224 q 637 1108 637 1177 q 635 1054 637 1083 q 634 1034 634 1042 q 641 978 634 1009 l 635 960 l 641 948 l 641 931 l 635 913 l 641 872 l 641 849 l 641 743 l 641 720 l 641 702 l 641 678 l 641 573 l 641 555 l 641 537 l 647 438 l 647 414 l 647 396 l 647 362 l 647 332 l 653 291 q 641 208 645 261 q 624 168 628 193 q 412 -8 555 48 q 395 9 408 2 l 394 52 l 395 103 l 395 120 l 395 122 q 388 132 395 128 l 388 185 q 441 285 428 222 l 454 291 l 447 320 q 430 449 447 367 l 424 837 l 418 872 l 418 937 q 424 1031 424 977 q 424 1046 424 1036 q 418 1089 424 1065 l 418 1166 q 441 1230 419 1194 l 547 1230 l 571 1230 "},"◊":{"x_min":0,"x_max":0,"ha":165},"F":{"x_min":11.859375,"x_max":629.671875,"ha":763,"o":"m 159 1244 l 177 1238 l 241 1238 q 287 1232 258 1238 l 304 1232 l 386 1232 l 426 1238 q 456 1236 439 1236 q 496 1238 475 1236 l 507 1232 l 525 1232 l 554 1232 l 588 1238 l 623 1226 q 629 1167 629 1197 q 600 1030 629 1100 q 578 1029 593 1029 q 507 1035 547 1029 l 496 1030 l 484 1035 l 466 1030 l 443 1030 l 426 1030 l 397 1030 q 333 1035 371 1028 l 304 1030 l 281 1035 q 234 1012 260 1031 l 229 908 l 229 890 l 234 844 l 229 815 l 234 797 l 229 769 q 348 753 282 753 q 420 757 383 753 l 449 745 q 453 695 453 725 q 449 640 453 664 l 455 629 l 455 612 l 455 588 l 432 548 l 327 548 l 287 548 l 264 548 l 241 548 l 223 554 l 223 484 l 223 467 l 223 368 l 223 345 l 223 322 l 223 299 l 223 276 l 223 211 l 223 107 l 223 84 l 223 8 l 194 -2 q 116 9 159 9 q 55 3 87 9 l 37 -2 l 14 8 q 11 46 11 31 q 20 136 11 81 l 14 165 l 20 183 l 20 362 l 20 391 l 20 1215 l 43 1244 l 159 1244 "},"r":{"x_min":0,"x_max":658.5,"ha":789,"o":"m 158 1237 q 216 1220 180 1233 q 214 1196 214 1205 q 222 1126 214 1167 l 216 1114 l 216 1091 l 216 1073 l 216 1050 l 216 1026 l 216 1009 l 222 991 l 216 962 l 216 921 l 222 897 l 222 874 l 222 833 q 225 790 225 816 q 222 739 225 764 l 222 693 l 228 675 q 221 554 221 623 q 222 493 221 537 l 222 453 q 223 418 223 442 q 216 324 223 373 l 222 282 l 228 153 l 228 36 l 210 -4 l 105 -4 l 82 -4 l 64 -4 l 40 -4 l 17 -4 l 17 271 l 11 288 l 11 318 q 14 356 14 334 q 11 400 14 379 l 17 429 q 14 471 14 455 q 17 522 14 486 l 11 540 l 17 558 l 17 587 q 11 712 11 638 l 11 733 l 11 775 q 12 809 12 785 q 6 904 12 851 l 6 968 l 11 991 l 6 1068 q 6 1094 6 1076 q 0 1196 6 1140 l 0 1213 q 52 1231 27 1215 q 83 1230 62 1230 q 158 1237 121 1230 m 391 1231 q 644 962 641 1211 q 658 859 658 908 q 538 628 658 720 l 538 604 q 609 558 573 594 l 620 552 l 638 511 q 649 464 641 483 l 649 347 l 649 300 l 649 282 l 649 253 l 649 229 l 649 195 l 649 77 l 649 60 l 649 36 l 649 19 l 644 2 q 596 -1 627 -1 q 538 2 565 -1 l 515 -4 l 497 -4 l 485 2 l 468 -4 l 438 -4 q 431 86 431 36 q 433 142 431 111 l 433 370 q 434 391 434 384 q 427 446 434 415 l 427 464 q 351 499 400 499 l 339 535 q 341 564 341 552 q 333 651 341 600 l 333 669 q 409 728 350 712 q 436 876 436 813 q 333 1050 436 1001 q 340 1092 340 1074 q 322 1161 340 1127 q 391 1231 321 1224 "},":":{"x_min":0,"x_max":0,"ha":157},"x":{"x_min":18.640625,"x_max":721.21875,"ha":847,"o":"m 694 1239 q 721 1180 721 1220 q 644 1003 684 1117 l 637 992 l 631 975 l 624 952 l 585 856 l 573 833 l 566 811 l 559 788 l 553 764 l 534 737 l 517 743 q 470 861 509 800 q 455 908 468 881 q 440 960 456 932 l 425 1019 l 414 1036 l 415 1054 q 466 1167 451 1099 q 498 1235 482 1195 l 677 1228 l 694 1239 m 232 1235 q 294 1192 263 1227 q 340 1063 298 1127 q 376 952 342 1013 q 387 939 376 943 q 411 840 385 892 l 416 805 q 447 723 425 771 q 462 665 449 701 l 466 647 l 472 636 l 472 634 q 477 618 472 627 l 487 589 l 498 559 q 528 477 500 522 l 527 459 l 544 430 q 580 347 549 388 l 580 324 q 605 254 593 295 l 622 225 q 653 148 624 183 q 688 37 655 96 l 694 19 l 687 -3 q 644 0 664 0 q 623 0 631 0 l 583 1 l 560 2 l 519 4 l 502 4 l 473 6 q 426 123 446 51 l 416 141 l 416 158 q 405 170 416 164 q 369 276 403 223 l 365 305 l 340 381 l 323 417 l 313 440 l 308 463 l 298 493 l 288 522 l 247 651 l 237 663 l 231 686 l 222 727 q 196 792 211 762 l 186 838 l 170 874 l 161 915 l 145 956 q 108 1050 134 994 l 104 1068 q 83 1114 98 1090 q 51 1186 79 1150 l 53 1220 q 119 1232 83 1232 q 174 1226 145 1232 q 232 1235 200 1225 m 223 491 q 258 373 232 446 l 267 315 q 302 214 302 266 q 270 107 302 163 q 237 10 264 59 q 205 8 222 8 q 150 14 175 8 l 51 6 l 18 25 l 20 71 q 83 208 55 124 l 90 219 l 102 241 l 110 276 l 122 292 l 129 309 l 135 338 l 148 355 q 175 440 154 394 q 188 474 176 459 l 200 497 l 223 491 "},"*":{"x_min":0,"x_max":0,"ha":334},"V":{"x_min":18.640625,"x_max":651.375,"ha":781,"o":"m 576 1230 l 599 1230 l 616 1230 l 639 1230 q 651 1219 641 1224 q 622 1045 651 1146 q 605 969 622 1010 l 605 946 l 599 922 l 587 864 l 581 847 l 581 824 l 576 777 l 564 754 l 558 719 l 552 691 q 535 609 551 657 l 523 510 l 500 487 q 477 598 474 533 l 465 609 l 442 708 l 436 725 q 413 830 433 773 q 401 859 412 843 l 390 882 l 401 934 l 407 946 l 413 986 l 419 1010 l 424 1051 l 430 1085 l 436 1103 q 454 1184 439 1134 l 460 1207 l 471 1230 l 576 1230 m 227 1207 q 262 1074 234 1158 l 268 1056 l 268 1038 l 268 1022 l 279 1004 q 279 994 279 1000 q 291 940 279 968 l 297 899 q 302 882 297 891 l 308 864 q 320 836 309 849 l 320 818 l 331 795 q 349 708 331 755 l 349 691 q 378 603 354 649 l 378 580 l 395 499 l 401 481 l 413 435 q 430 365 414 408 q 442 318 434 338 l 454 278 l 465 238 q 442 145 465 189 q 419 11 441 92 l 413 0 q 355 -6 384 -6 q 291 0 327 -6 q 274 34 286 18 q 274 52 274 40 q 233 214 274 130 q 234 226 234 218 q 222 284 234 257 q 215 318 222 300 l 204 383 l 192 406 q 186 435 192 419 l 181 487 l 157 557 q 152 574 157 564 l 152 609 l 140 626 l 140 661 q 111 771 125 703 q 88 853 107 808 q 82 911 88 878 l 70 922 l 59 969 q 41 1062 59 1007 l 18 1161 l 18 1201 q 95 1214 53 1214 q 123 1213 104 1214 l 124 1213 q 134 1219 130 1213 l 227 1207 "},"h":{"x_min":20.671875,"x_max":690.703125,"ha":819,"o":"m 144 1244 q 249 1232 183 1244 l 255 1116 l 255 1040 q 253 1011 253 1026 q 260 942 253 981 q 256 906 256 927 q 260 866 256 886 l 255 849 q 256 839 256 847 q 255 826 256 831 q 261 770 261 801 q 260 745 261 754 l 255 704 q 289 698 272 697 q 307 663 295 679 l 307 524 q 255 489 298 486 l 255 268 q 253 245 253 261 q 260 187 253 217 q 257 123 257 155 q 260 42 257 92 l 255 25 l 255 7 l 237 -4 q 176 4 207 4 q 139 2 165 4 q 122 3 133 3 q 104 2 110 3 q 86 -4 95 2 l 34 7 q 20 128 20 57 q 28 240 20 180 l 22 309 l 28 326 q 23 374 23 349 q 28 431 23 398 q 21 522 21 472 q 22 564 21 535 l 22 1215 q 144 1244 71 1241 m 690 1232 q 683 1131 683 1191 q 690 1006 683 1072 l 684 977 l 690 931 l 684 913 q 683 883 683 894 q 690 797 683 846 l 684 756 l 690 733 l 684 640 l 690 628 l 684 605 l 690 594 l 690 576 l 684 541 l 684 507 l 690 472 l 684 437 q 690 344 683 398 l 690 7 l 464 7 q 457 86 457 41 q 458 118 457 107 l 452 390 q 455 440 455 411 q 452 501 455 472 q 405 518 425 499 q 409 553 409 537 q 405 594 409 570 l 405 675 q 458 704 418 698 q 460 734 460 718 q 446 820 460 775 q 449 841 449 829 q 446 866 449 855 l 452 959 l 452 977 l 446 988 l 446 1047 q 451 1108 451 1073 q 446 1174 451 1144 q 470 1232 451 1197 l 690 1232 "},"0":{"x_min":15.921875,"x_max":675.109375,"ha":800,"o":"m 297 1114 l 297 1068 l 297 1021 q 245 969 268 1007 q 239 876 238 929 l 239 829 l 239 811 l 239 794 l 239 777 l 239 718 l 239 695 l 239 672 l 239 649 l 239 632 l 239 602 l 239 585 l 239 556 l 239 521 l 239 492 l 239 468 q 230 387 230 427 q 297 183 230 276 l 297 154 l 297 38 l 297 -8 q 15 495 15 14 q 17 579 15 535 l 17 741 l 29 788 l 28 828 l 29 893 l 35 910 l 35 939 l 47 998 l 70 1091 q 273 1230 142 1186 l 297 1230 l 297 1114 m 424 1224 q 634 1079 552 1201 q 645 1027 633 1056 q 657 928 645 988 q 669 829 657 889 q 667 814 667 819 q 675 771 667 795 l 675 748 l 675 730 l 675 707 l 675 684 l 675 660 l 675 637 l 675 614 l 675 590 l 675 474 l 675 427 l 669 416 l 669 370 q 663 311 662 347 l 657 288 l 657 271 l 657 247 l 652 230 l 652 206 q 605 96 626 166 q 401 -2 523 16 q 388 105 388 42 q 390 154 388 129 q 384 172 390 163 q 442 242 400 212 l 460 276 q 462 296 462 286 q 460 317 462 307 l 465 364 l 465 643 l 448 655 l 465 684 l 460 724 q 465 771 465 743 q 468 816 468 793 q 465 870 468 838 l 465 946 l 465 969 q 401 1021 435 989 l 401 1201 l 424 1224 "},".":{"x_min":32.875,"x_max":239.71875,"ha":353,"o":"m 148 197 l 160 197 q 239 87 239 144 q 206 12 239 50 q 132 -10 165 -10 q 32 99 61 -10 q 148 197 60 176 l 160 197 l 148 197 "},"@":{"x_min":0,"x_max":0,"ha":393},"f":{"x_min":11.859375,"x_max":629.671875,"ha":763,"o":"m 159 1244 l 177 1238 l 241 1238 q 287 1232 258 1238 l 304 1232 l 386 1232 l 426 1238 q 456 1236 439 1236 q 496 1238 475 1236 l 507 1232 l 525 1232 l 554 1232 l 588 1238 l 623 1226 q 629 1167 629 1197 q 600 1030 629 1100 q 578 1029 593 1029 q 507 1035 547 1029 l 496 1030 l 484 1035 l 466 1030 l 443 1030 l 426 1030 l 397 1030 q 333 1035 371 1028 l 304 1030 l 281 1035 q 234 1012 260 1031 l 229 908 l 229 890 l 234 844 l 229 815 l 234 797 l 229 769 q 348 753 282 753 q 420 757 383 753 l 449 745 q 453 695 453 725 q 449 640 453 664 l 455 629 l 455 612 l 455 588 l 432 548 l 327 548 l 287 548 l 264 548 l 241 548 l 223 554 l 223 484 l 223 467 l 223 368 l 223 345 l 223 322 l 223 299 l 223 276 l 223 211 l 223 107 l 223 84 l 223 8 l 194 -2 q 116 9 159 9 q 55 3 87 9 l 37 -2 l 14 8 q 11 46 11 31 q 20 136 11 81 l 14 165 l 20 183 l 20 362 l 20 391 l 20 1215 l 43 1244 l 159 1244 "},";":{"x_min":0,"x_max":0,"ha":161},"i":{"x_min":20,"x_max":245.140625,"ha":372,"o":"m 112 1224 q 160 1230 135 1230 q 233 1219 197 1230 l 245 1127 q 239 1081 239 1110 l 245 1069 l 245 1051 l 245 1034 l 245 1005 l 245 908 l 245 890 l 245 832 l 245 803 l 245 722 l 245 619 l 245 596 l 245 556 l 245 538 l 245 521 l 245 503 l 245 429 l 245 411 l 245 394 l 245 324 l 245 307 l 245 209 l 245 186 l 245 71 l 245 54 l 245 8 q 129 -9 199 8 q 58 2 98 2 q 37 2 45 2 l 31 36 l 31 365 l 26 382 l 31 411 l 26 446 l 31 475 l 26 509 q 25 528 25 516 q 31 584 25 553 l 26 596 l 26 769 l 26 792 l 26 890 q 22 969 22 929 q 26 1069 22 1008 l 20 1097 l 26 1115 l 20 1150 l 20 1207 l 43 1224 q 62 1222 55 1222 q 100 1230 79 1222 l 112 1224 "},"6":{"x_min":33.5625,"x_max":667.640625,"ha":800,"o":"m 317 1144 l 317 1097 l 311 1085 l 311 1068 q 241 939 267 1019 q 242 899 242 927 q 235 792 242 851 l 235 775 l 235 757 q 265 740 248 740 q 306 757 283 740 q 325 655 325 712 q 323 616 325 636 l 317 563 l 311 552 q 222 391 222 511 q 229 316 222 359 q 317 199 240 241 q 321 134 321 167 q 317 52 321 102 l 317 35 l 317 17 l 311 0 q 39 483 39 34 q 41 563 39 522 q 33 651 33 604 q 47 786 33 713 l 47 862 l 65 950 l 65 968 l 76 1015 l 76 1032 l 112 1103 l 118 1115 l 123 1127 l 135 1133 l 141 1144 l 147 1162 q 270 1232 194 1207 q 282 1244 276 1234 l 311 1238 l 317 1144 m 428 1238 q 656 1020 656 1166 q 646 956 656 988 q 529 910 592 946 q 405 1080 502 1013 q 402 1122 402 1097 q 428 1238 402 1179 m 428 751 q 667 412 667 665 q 664 346 667 375 q 417 0 671 92 q 393 23 409 11 l 393 187 q 488 349 488 236 q 487 369 488 362 q 489 401 489 385 q 405 575 489 502 q 406 588 406 579 q 393 639 406 615 l 405 704 l 405 745 l 428 751 "},"A":{"x_min":12.859375,"x_max":705.296875,"ha":834,"o":"m 292 1258 q 382 1231 332 1231 q 443 1240 408 1231 q 472 1211 451 1225 q 490 1089 472 1164 l 490 1059 l 495 1036 l 495 1034 q 501 1019 495 1027 l 507 973 l 513 949 l 513 920 q 524 908 519 918 l 524 906 q 531 891 524 899 q 530 878 530 887 q 542 810 530 849 q 571 699 539 760 q 588 594 570 651 l 594 554 q 617 455 599 518 q 635 362 620 417 l 635 345 l 635 343 q 641 332 635 338 l 653 286 l 653 263 l 670 240 l 676 147 l 682 135 l 705 42 l 705 2 l 600 7 l 583 7 q 536 2 559 9 l 518 7 l 490 7 q 449 193 459 78 q 389 200 423 200 q 356 199 367 200 q 344 210 354 205 l 339 251 q 367 391 370 310 l 414 408 q 391 501 401 445 l 385 513 l 385 515 q 379 524 385 521 q 380 541 380 530 q 373 600 380 569 q 367 659 367 625 q 350 722 356 681 l 344 745 l 339 775 q 326 862 326 809 l 321 874 l 309 903 l 303 944 l 297 973 q 286 1019 290 989 q 286 1026 286 1021 q 274 1054 286 1040 l 269 1095 l 257 1129 l 257 1165 l 245 1199 l 251 1234 q 292 1258 276 1232 m 228 833 q 240 740 227 790 q 239 727 239 736 q 251 664 239 698 l 251 641 l 257 630 l 257 606 l 263 583 l 274 467 l 274 465 q 280 449 274 457 l 280 432 l 286 408 q 269 321 289 366 l 269 275 l 263 257 l 263 240 l 257 187 l 251 176 l 251 153 q 240 48 238 113 l 233 36 l 228 13 q 134 -4 185 14 l 59 2 l 42 2 l 24 2 l 12 18 q 30 106 12 59 q 59 234 33 156 l 71 316 l 77 350 l 88 391 l 105 472 l 105 501 l 118 524 q 134 623 117 563 l 158 745 l 170 792 l 170 815 l 187 845 l 228 833 "},"n":{"x_min":-0.671875,"x_max":628.65625,"ha":788,"o":"m 130 -2 q 105 -4 118 -4 q 10 26 53 -4 l 10 95 l 10 113 l 10 210 l 10 233 l 10 250 q 11 267 11 256 q 5 314 11 290 q 10 349 10 329 q 5 389 10 369 q 9 429 9 407 q 6 469 9 446 q 6 486 6 475 q 0 539 6 510 q 2 556 2 548 q 0 573 2 565 l 6 596 q 0 655 0 621 q 0 677 0 670 q 0 707 0 686 q 7 786 0 743 l 7 804 l 30 798 q 59 752 37 775 q 127 596 73 672 l 132 573 l 155 533 l 184 463 l 190 452 l 207 434 l 207 411 l 230 383 l 236 354 l 247 330 q 259 302 248 317 q 244 193 244 252 q 258 71 244 136 l 252 60 l 246 14 l 130 -2 m 609 12 q 590 11 596 11 q 505 42 548 11 q 448 174 492 101 l 442 198 l 431 209 q 391 295 421 250 l 385 313 l 374 330 q 334 410 364 370 l 334 428 l 322 451 l 305 469 q 265 543 299 508 q 254 578 263 560 l 254 579 q 248 590 254 585 q 202 676 234 636 l 202 693 l 185 722 l 168 751 l 151 780 q 105 867 141 824 l 105 884 q 71 941 89 906 l 59 953 l 53 965 q 13 1045 46 1005 l 2 1103 q 4 1133 4 1118 q 2 1167 4 1150 l 2 1207 q 50 1214 26 1214 q 106 1207 75 1214 l 147 1217 l 170 1217 l 187 1212 q 244 1097 201 1167 l 244 1095 q 250 1085 244 1089 q 255 1068 250 1077 q 278 1010 261 1049 l 290 992 q 295 975 290 985 l 307 946 q 341 883 316 917 l 341 866 l 353 849 q 370 814 357 834 l 381 779 l 392 750 l 410 716 l 427 681 l 438 658 l 455 623 l 467 589 l 484 554 q 535 456 501 509 q 570 387 543 420 q 587 341 571 369 l 610 306 q 621 266 613 284 l 621 122 l 626 110 l 621 93 l 620 24 q 609 12 615 23 m 576 566 l 577 617 l 554 669 l 531 727 l 519 739 l 514 756 l 502 767 q 479 825 497 786 l 467 842 q 456 859 464 853 l 450 882 l 445 912 l 427 929 l 422 952 l 405 969 q 399 1009 405 990 l 400 1055 q 398 1083 398 1064 q 406 1154 398 1117 q 404 1180 404 1170 q 406 1211 404 1190 l 440 1217 q 477 1215 452 1215 q 573 1222 521 1215 l 590 1222 q 602 1211 592 1216 q 612 1119 612 1170 q 606 1038 612 1076 l 613 1020 l 612 922 q 613 896 613 914 q 612 865 613 876 q 617 819 611 837 l 617 801 l 617 750 l 617 727 l 623 652 l 628 577 l 622 548 l 576 566 "},"O":{"x_min":0,"x_max":657.140625,"ha":781,"o":"m 242 1224 q 280 1112 280 1217 q 276 1039 280 1074 q 230 987 266 1007 l 225 964 l 212 947 l 212 832 q 219 815 212 823 l 212 792 l 212 774 q 215 738 215 760 q 212 693 215 715 l 219 618 l 219 520 l 219 492 l 225 463 l 219 423 q 225 368 225 400 q 225 347 225 355 q 230 255 223 312 q 288 209 246 225 l 299 174 q 298 148 298 158 q 299 117 298 140 q 296 72 296 95 q 299 18 296 51 l 294 2 q 267 0 284 0 q 86 105 155 0 l 74 100 q 40 215 67 147 l 34 249 q 23 307 35 276 l 17 387 l 17 405 q 5 497 5 444 q 6 511 6 502 q 0 543 6 528 l 5 561 q 0 639 0 602 q 5 733 0 674 l 5 872 l 11 889 l 17 907 l 17 947 q 34 1045 28 990 l 40 1062 l 57 1102 q 242 1224 124 1182 m 380 1212 q 576 1097 486 1192 q 604 1045 581 1070 l 617 953 l 622 941 l 627 924 q 627 909 627 919 q 640 826 627 874 l 645 802 l 645 779 q 643 755 643 769 q 651 699 643 731 l 651 676 l 651 653 l 657 630 l 651 607 q 653 554 653 585 q 645 440 653 505 l 645 423 l 645 400 l 645 382 l 645 347 l 645 330 q 627 226 627 286 l 617 192 l 604 134 q 409 -9 538 31 q 377 136 377 53 q 380 192 377 160 l 380 215 q 438 278 413 236 q 439 321 439 304 q 432 457 439 368 l 438 486 l 426 503 l 438 532 l 438 924 q 368 1016 421 977 q 363 1056 368 1036 q 368 1112 368 1080 q 363 1177 368 1147 l 380 1212 "},"3":{"x_min":15.921875,"x_max":664.9375,"ha":792,"o":"m 255 1237 q 324 1214 289 1240 q 317 1160 317 1188 q 324 1097 317 1133 q 312 1022 312 1065 q 202 877 227 986 q 97 912 150 877 q 34 958 69 927 l 16 964 q 255 1237 47 1162 m 405 1237 q 662 885 662 1139 q 638 714 662 807 q 557 633 599 687 q 615 563 574 597 q 638 522 616 543 q 664 324 664 412 q 371 5 664 33 l 370 36 l 371 75 l 371 191 q 429 243 390 219 q 455 384 455 323 q 319 534 455 519 q 307 604 310 559 l 319 737 q 452 824 406 741 l 451 864 l 452 912 l 452 946 q 388 1016 439 993 q 377 1068 388 1038 q 386 1150 386 1108 q 382 1208 386 1177 l 405 1237 m 197 371 q 307 191 216 269 l 307 179 q 300 118 300 147 q 307 51 300 90 q 283 -12 300 23 l 190 16 q 15 292 15 102 q 16 313 15 305 l 51 336 q 132 365 86 339 l 150 365 l 161 377 l 197 371 "},"]":{"x_min":0,"x_max":0,"ha":212},"m":{"x_min":-0.671875,"x_max":789.390625,"ha":920,"o":"m 613 1238 q 707 1225 653 1225 q 764 1228 731 1225 l 775 1222 q 779 1156 779 1193 q 778 1106 779 1124 l 777 1089 l 777 1072 l 775 1002 l 775 985 l 781 973 q 786 944 779 958 q 781 910 781 925 q 784 880 781 897 q 782 869 782 875 q 783 857 782 865 q 781 840 781 849 q 783 828 781 836 l 776 805 l 781 770 l 781 747 l 779 701 l 779 672 q 783 613 778 651 l 781 550 l 787 538 l 781 515 q 783 489 783 504 q 779 451 783 473 q 783 404 785 434 l 789 370 l 776 335 l 788 311 q 779 242 787 285 l 784 195 l 784 179 q 782 169 782 174 q 783 161 782 166 l 783 143 l 783 126 q 781 117 781 122 q 782 109 781 114 l 781 86 l 780 22 q 677 9 735 9 q 600 14 643 9 q 581 189 581 79 l 587 201 q 582 252 582 227 q 590 322 582 285 q 583 372 583 347 q 587 409 583 390 q 583 479 582 438 l 584 763 q 585 788 585 779 q 580 845 585 812 l 587 1123 q 589 1198 585 1153 l 590 1215 l 613 1238 m 44 1229 q 57 1230 48 1230 q 108 1222 82 1230 q 154 1226 124 1226 l 172 1226 l 212 1225 q 250 1102 221 1169 l 250 1079 l 261 1067 l 282 968 l 292 945 q 303 915 293 931 l 308 880 q 341 787 314 836 q 356 722 340 756 l 362 688 l 390 676 l 421 762 l 434 808 l 441 842 l 453 853 l 459 876 q 505 864 482 876 q 506 846 506 858 q 497 777 506 812 l 503 765 l 497 748 l 502 731 l 501 708 l 501 690 l 499 609 q 497 587 497 598 q 503 545 497 567 l 497 528 l 502 504 q 493 377 492 456 l 498 337 l 472 233 l 460 227 l 460 210 l 459 192 l 447 169 l 446 146 l 434 118 l 428 94 q 425 76 425 87 q 427 60 425 71 l 415 19 q 356 9 391 12 q 341 91 343 46 l 330 132 l 319 149 l 320 172 l 308 185 l 308 187 q 303 202 308 194 l 298 237 l 293 266 l 282 284 l 277 307 l 265 330 l 245 424 l 228 442 q 190 564 223 504 q 168 634 186 592 l 169 652 l 152 676 q 126 769 149 716 l 115 798 q 104 828 113 812 q 66 939 98 876 l 67 956 l 55 968 l 50 1009 l 34 1049 l 17 1079 l 21 1212 l 44 1229 m 18 673 l 25 673 l 65 649 q 103 549 75 607 l 103 532 q 129 438 124 492 l 141 426 q 156 356 139 391 l 161 327 l 172 304 l 177 275 q 204 204 191 250 l 202 88 l 212 48 l 212 30 l 205 7 l 199 -9 q 141 -14 179 -8 l 77 -12 l 60 -17 l 42 -11 l 31 -16 l 13 -10 q 2 18 11 4 q 5 53 5 32 q 0 111 5 80 q 2 149 2 131 q 1 174 2 158 l 2 238 l 8 256 l 10 302 l 5 354 l 0 383 l 2 465 q 2 488 2 472 q 10 575 2 528 l 12 615 l 6 644 l 18 673 l 25 673 l 18 673 "},"9":{"x_min":22.03125,"x_max":637.125,"ha":759,"o":"m 288 1157 l 288 1140 q 287 1126 287 1135 q 293 1093 287 1109 l 288 1082 l 288 1059 q 207 960 244 1022 l 207 891 l 207 874 l 207 775 q 293 665 228 707 q 300 595 300 634 q 288 486 300 545 q 27 787 44 524 q 22 862 22 827 q 85 1134 22 994 q 143 1180 108 1147 q 149 1203 148 1190 q 201 1232 178 1209 q 241 1244 220 1233 l 288 1232 l 288 1157 m 375 1238 q 572 1099 486 1209 q 595 1041 576 1072 q 606 995 598 1014 l 612 925 l 624 914 l 624 845 l 629 827 l 629 810 l 635 775 l 635 705 l 635 688 l 635 671 l 635 653 l 635 607 q 637 560 637 593 q 629 427 637 499 l 629 399 l 629 381 l 624 358 l 624 335 l 624 306 q 612 231 612 273 q 565 126 586 192 q 369 5 491 41 l 351 46 q 369 150 368 87 l 357 167 q 451 413 451 254 q 444 509 451 462 q 380 491 410 505 q 369 514 380 503 l 363 550 q 368 581 368 566 q 363 619 368 598 q 369 694 363 651 q 451 827 451 731 q 450 845 451 838 q 454 885 454 861 q 369 1030 454 976 q 351 1064 370 1051 q 359 1113 359 1088 q 351 1169 359 1140 q 363 1199 363 1184 q 357 1221 363 1209 l 375 1238 m 166 324 q 276 179 201 244 l 300 167 q 306 111 305 135 l 306 99 q 260 16 306 16 q 218 28 243 16 q 27 208 95 72 l 27 254 q 138 324 81 274 l 166 324 "},"l":{"x_min":20,"x_max":636.453125,"ha":755,"o":"m 129 1222 q 159 1224 138 1224 q 238 1216 198 1224 q 254 1076 254 1155 q 249 987 254 1042 l 255 964 q 252 937 252 948 q 255 906 252 929 l 249 889 q 249 870 249 883 q 255 809 249 842 l 255 792 l 255 774 l 249 739 l 249 699 l 261 659 q 254 590 254 632 q 255 562 254 572 l 255 544 l 255 527 l 255 481 l 255 458 l 255 441 l 261 406 l 255 366 l 255 332 l 255 292 l 255 257 l 255 217 q 330 199 288 199 q 382 205 355 199 q 429 196 402 196 q 462 200 443 196 q 529 191 496 191 q 606 200 562 191 l 628 188 q 636 86 636 149 q 635 27 636 48 l 635 10 q 583 -6 611 0 q 498 0 547 0 q 451 -1 467 0 l 433 -1 l 365 -1 l 347 -1 l 319 -1 l 289 -1 l 272 -1 l 249 -1 l 221 -1 l 203 -1 l 129 -1 l 106 -1 l 83 4 l 60 4 l 36 10 l 20 21 l 20 309 q 20 352 20 322 q 20 406 20 387 q 22 452 22 425 q 20 504 22 480 l 25 544 l 20 1182 l 31 1211 l 71 1216 l 117 1216 l 119 1216 q 129 1222 125 1216 "},"8":{"x_min":32.875,"x_max":704.265625,"ha":830,"o":"m 279 1237 q 331 1208 299 1231 q 328 1177 328 1194 q 331 1144 328 1160 q 329 1113 329 1130 q 331 1075 329 1095 l 319 1011 l 279 977 q 276 942 276 956 q 279 901 276 931 l 273 872 l 279 837 l 279 768 q 331 727 298 741 l 348 686 q 342 640 342 661 q 348 588 342 619 l 348 554 q 342 531 343 544 q 267 472 307 514 q 256 385 267 441 q 267 252 256 335 q 332 101 332 185 q 313 3 332 54 q 32 319 32 44 q 64 531 32 410 l 140 623 l 157 634 q 49 899 49 758 q 128 1156 49 1021 l 249 1220 l 267 1220 l 279 1237 m 429 1237 q 681 896 681 1148 q 656 722 681 820 q 626 675 636 706 q 574 611 588 653 q 704 335 704 474 q 557 32 704 185 q 510 9 534 29 q 452 -8 480 7 q 406 14 427 -10 l 388 9 q 401 108 401 54 q 395 189 401 146 q 476 322 460 237 q 481 374 481 345 q 412 531 481 461 q 401 623 414 571 l 406 640 l 401 658 l 406 693 l 412 733 q 479 891 479 790 q 470 971 479 929 q 418 1017 458 1005 q 401 1052 413 1036 q 405 1106 405 1075 q 401 1167 405 1137 l 401 1203 q 429 1237 416 1217 "},"p":{"x_min":0,"x_max":618.484375,"ha":744,"o":"m 354 1237 q 618 899 618 1194 q 617 857 618 886 q 618 821 618 833 q 336 542 618 548 q 330 633 330 580 q 330 671 330 657 l 330 729 q 412 823 398 753 q 406 928 414 863 l 406 992 q 330 1038 381 1036 q 330 1056 330 1044 q 336 1114 330 1083 l 330 1196 q 332 1205 332 1200 q 330 1214 332 1211 l 354 1237 m 143 1231 l 161 1231 l 184 1231 l 202 1220 q 212 1137 212 1181 q 202 1045 212 1093 q 214 910 214 991 l 208 898 l 214 881 l 214 781 l 214 752 l 214 729 l 214 624 l 214 600 l 214 583 l 219 571 l 219 531 l 219 495 l 225 455 l 225 349 l 225 326 l 225 209 l 225 191 l 225 145 l 225 99 l 225 52 l 219 10 q 82 -2 165 -2 q 15 0 51 -2 q 8 155 8 59 q 9 221 8 198 l 9 448 l 9 472 l 3 507 l 9 571 q 3 688 2 619 l 3 1074 q 0 1117 0 1096 q 15 1231 0 1167 l 120 1231 l 143 1231 "},"4":{"x_min":32.875,"x_max":711.90625,"ha":838,"o":"m 619 1224 q 631 1213 620 1219 l 631 1144 l 631 1127 l 631 1028 l 631 1005 l 631 930 l 631 826 l 631 809 l 631 786 l 631 762 l 631 646 l 631 630 l 631 606 l 631 589 l 631 560 l 631 543 l 631 520 l 631 502 l 631 462 q 651 464 642 464 l 652 464 q 711 381 715 464 q 699 301 699 344 q 700 283 699 289 q 631 271 671 282 l 631 202 l 631 185 l 631 86 l 631 63 l 631 40 l 631 17 l 619 0 l 515 0 l 492 0 l 475 0 l 451 0 l 440 6 q 428 103 428 48 q 428 132 428 122 l 428 508 l 434 531 l 433 577 l 434 635 l 434 774 q 435 794 435 780 q 428 855 435 821 l 434 872 l 428 889 l 428 930 q 430 961 430 946 q 417 1045 430 1003 q 420 1070 420 1055 q 417 1097 420 1087 l 422 1115 l 422 1144 l 428 1167 q 475 1224 466 1177 l 476 1224 q 486 1230 481 1224 l 601 1224 l 619 1224 m 359 953 l 353 838 l 353 820 l 353 797 l 353 779 l 353 751 l 347 733 l 347 699 l 359 681 q 347 646 348 668 l 347 623 q 284 525 317 586 l 272 520 l 261 502 l 255 491 l 237 474 q 289 465 261 465 q 319 467 303 465 l 347 450 l 353 323 l 347 306 l 347 283 l 324 271 q 268 276 301 276 q 197 271 233 276 l 156 271 l 140 271 l 122 271 l 104 271 l 47 271 q 35 283 46 277 q 32 340 32 317 q 35 410 32 360 l 35 456 q 116 600 72 507 q 151 653 138 619 l 168 676 q 214 756 182 714 l 226 786 l 243 814 l 255 843 l 278 866 l 289 895 l 307 912 l 312 947 l 330 971 l 359 953 "},"R":{"x_min":0,"x_max":658.5,"ha":789,"o":"m 158 1237 q 216 1220 180 1233 q 214 1196 214 1205 q 222 1126 214 1167 l 216 1114 l 216 1091 l 216 1073 l 216 1050 l 216 1026 l 216 1009 l 222 991 l 216 962 l 216 921 l 222 897 l 222 874 l 222 833 q 225 790 225 816 q 222 739 225 764 l 222 693 l 228 675 q 221 554 221 623 q 222 493 221 537 l 222 453 q 223 418 223 442 q 216 324 223 373 l 222 282 l 228 153 l 228 36 l 210 -4 l 105 -4 l 82 -4 l 64 -4 l 40 -4 l 17 -4 l 17 271 l 11 288 l 11 318 q 14 356 14 334 q 11 400 14 379 l 17 429 q 14 471 14 455 q 17 522 14 486 l 11 540 l 17 558 l 17 587 q 11 712 11 638 l 11 733 l 11 775 q 12 809 12 785 q 6 904 12 851 l 6 968 l 11 991 l 6 1068 q 6 1094 6 1076 q 0 1196 6 1140 l 0 1213 q 52 1231 27 1215 q 83 1230 62 1230 q 158 1237 121 1230 m 391 1231 q 644 962 641 1211 q 658 859 658 908 q 538 628 658 720 l 538 604 q 609 558 573 594 l 620 552 l 638 511 q 649 464 641 483 l 649 347 l 649 300 l 649 282 l 649 253 l 649 229 l 649 195 l 649 77 l 649 60 l 649 36 l 649 19 l 644 2 q 596 -1 627 -1 q 538 2 565 -1 l 515 -4 l 497 -4 l 485 2 l 468 -4 l 438 -4 q 431 86 431 36 q 433 142 431 111 l 433 370 q 434 391 434 384 q 427 446 434 415 l 427 464 q 351 499 400 499 l 339 535 q 341 564 341 552 q 333 651 341 600 l 333 669 q 409 728 350 712 q 436 876 436 813 q 333 1050 436 1001 q 340 1092 340 1074 q 322 1161 340 1127 q 391 1231 321 1224 "},"o":{"x_min":0,"x_max":657.140625,"ha":781,"o":"m 242 1224 q 280 1112 280 1217 q 276 1039 280 1074 q 230 987 266 1007 l 225 964 l 212 947 l 212 832 q 219 815 212 823 l 212 792 l 212 774 q 215 738 215 760 q 212 693 215 715 l 219 618 l 219 520 l 219 492 l 225 463 l 219 423 q 225 368 225 400 q 225 347 225 355 q 230 255 223 312 q 288 209 246 225 l 299 174 q 298 148 298 158 q 299 117 298 140 q 296 72 296 95 q 299 18 296 51 l 294 2 q 267 0 284 0 q 86 105 155 0 l 74 100 q 40 215 67 147 l 34 249 q 23 307 35 276 l 17 387 l 17 405 q 5 497 5 444 q 6 511 6 502 q 0 543 6 528 l 5 561 q 0 639 0 602 q 5 733 0 674 l 5 872 l 11 889 l 17 907 l 17 947 q 34 1045 28 990 l 40 1062 l 57 1102 q 242 1224 124 1182 m 380 1212 q 576 1097 486 1192 q 604 1045 581 1070 l 617 953 l 622 941 l 627 924 q 627 909 627 919 q 640 826 627 874 l 645 802 l 645 779 q 643 755 643 769 q 651 699 643 731 l 651 676 l 651 653 l 657 630 l 651 607 q 653 554 653 585 q 645 440 653 505 l 645 423 l 645 400 l 645 382 l 645 347 l 645 330 q 627 226 627 286 l 617 192 l 604 134 q 409 -9 538 31 q 377 136 377 53 q 380 192 377 160 l 380 215 q 438 278 413 236 q 439 321 439 304 q 432 457 439 368 l 438 486 l 426 503 l 438 532 l 438 924 q 368 1016 421 977 q 363 1056 368 1036 q 368 1112 368 1080 q 363 1177 368 1147 l 380 1212 "},"5":{"x_min":32.875,"x_max":685.28125,"ha":814,"o":"m 647 1226 q 656 1144 656 1187 q 641 1020 656 1087 q 597 1023 622 1023 q 507 1015 556 1023 l 489 1020 l 472 1015 l 448 1020 l 425 1015 l 401 1020 l 372 1020 l 348 1015 l 314 1015 l 296 1003 q 279 904 299 958 l 279 886 l 267 845 l 267 827 l 267 780 q 296 792 281 781 l 314 798 l 331 757 q 319 684 319 722 q 325 628 319 658 l 319 587 q 237 534 277 575 l 220 534 q 73 651 169 594 l 62 663 l 50 669 l 44 693 l 50 786 l 50 804 l 62 886 l 62 927 l 68 950 l 79 1079 l 91 1102 q 89 1123 89 1117 q 97 1173 89 1148 l 91 1184 l 91 1226 q 120 1225 100 1225 q 214 1231 159 1225 l 232 1226 l 249 1231 l 267 1231 l 348 1231 l 530 1231 l 559 1231 q 589 1237 573 1231 l 647 1226 m 413 798 q 685 415 685 721 q 683 364 685 390 q 422 6 673 6 q 396 7 405 6 q 401 113 396 44 l 401 153 l 396 165 q 460 229 415 206 q 472 311 460 263 l 472 405 l 472 406 q 466 417 472 413 q 468 446 468 431 q 460 511 468 474 l 460 528 l 390 593 l 396 710 l 396 757 l 413 798 m 203 370 l 214 370 l 208 370 l 220 370 l 214 370 l 220 370 l 237 341 q 319 189 233 248 q 325 119 323 157 l 325 103 q 270 -12 325 -12 q 226 1 251 -12 q 32 294 53 86 l 179 358 l 203 370 l 208 370 l 203 370 "}}}
